<svg xmlns="http://www.w3.org/2000/svg" xmlns:xlink="http://www.w3.org/1999/xlink" width="40" zoomAndPan="magnify" viewBox="0 0 30 30.000001" height="40" preserveAspectRatio="xMidYMid meet" version="1.0"><defs><g/><clipPath id="94031f119c"><path d="M 19.457031 6.753906 L 27.441406 6.753906 L 27.441406 17.832031 L 19.457031 17.832031 Z M 19.457031 6.753906 " clip-rule="nonzero"/></clipPath><clipPath id="a768579385"><path d="M 23 5.042969 L 24 5.042969 L 24 7 L 23 7 Z M 23 5.042969 " clip-rule="nonzero"/></clipPath><clipPath id="e1ff1829ce"><path d="M 25 5.042969 L 27 5.042969 L 27 7 L 25 7 Z M 25 5.042969 " clip-rule="nonzero"/></clipPath><clipPath id="7270b5fe08"><path d="M 26.871094 7.609375 L 27.957031 7.609375 L 27.957031 8.464844 L 26.871094 8.464844 Z M 26.871094 7.609375 " clip-rule="nonzero"/></clipPath><clipPath id="1aba8bcb6f"><path d="M 21 5.042969 L 22 5.042969 L 22 7 L 21 7 Z M 21 5.042969 " clip-rule="nonzero"/></clipPath><clipPath id="dacfc21d83"><path d="M 19.441406 6 L 21 6 L 21 8 L 19.441406 8 Z M 19.441406 6 " clip-rule="nonzero"/></clipPath></defs><g fill="#26a9e0" fill-opacity="1"><g transform="translate(1.268606, 17.263535)"><g><path d="M 2 -6.765625 L 2 -1.4375 L 2.625 -1.4375 C 2.820312 -1.4375 2.976562 -1.503906 3.09375 -1.640625 C 3.21875 -1.785156 3.28125 -1.957031 3.28125 -2.15625 L 3.28125 -6.046875 C 3.28125 -6.296875 3.210938 -6.476562 3.078125 -6.59375 C 2.953125 -6.707031 2.789062 -6.765625 2.59375 -6.765625 Z M 0.421875 -0.21875 L 0.421875 -7.984375 C 0.421875 -8.140625 0.488281 -8.21875 0.625 -8.21875 L 2.6875 -8.21875 C 3.101562 -8.207031 3.472656 -8.117188 3.796875 -7.953125 C 4.117188 -7.796875 4.375 -7.5625 4.5625 -7.25 C 4.757812 -6.945312 4.859375 -6.566406 4.859375 -6.109375 L 4.859375 -2.109375 C 4.859375 -1.648438 4.757812 -1.265625 4.5625 -0.953125 C 4.375 -0.648438 4.117188 -0.414062 3.796875 -0.25 C 3.472656 -0.0820312 3.109375 0 2.703125 0 L 0.625 0 C 0.488281 0 0.421875 -0.0703125 0.421875 -0.21875 Z M 0.421875 -0.21875 "/></g></g></g><g fill="#26a9e0" fill-opacity="1"><g transform="translate(6.179065, 17.263535)"><g><path d="M 4.734375 -6.28125 L 4.734375 -1.921875 C 4.734375 -1.609375 4.671875 -1.320312 4.546875 -1.0625 C 4.429688 -0.8125 4.269531 -0.59375 4.0625 -0.40625 C 3.851562 -0.226562 3.613281 -0.09375 3.34375 0 C 3.082031 0.0820312 2.800781 0.125 2.5 0.125 C 2.207031 0.125 1.925781 0.078125 1.65625 -0.015625 C 1.394531 -0.109375 1.160156 -0.242188 0.953125 -0.421875 C 0.742188 -0.597656 0.582031 -0.8125 0.46875 -1.0625 C 0.351562 -1.320312 0.296875 -1.609375 0.296875 -1.921875 L 0.296875 -6.28125 C 0.296875 -6.601562 0.351562 -6.890625 0.46875 -7.140625 C 0.582031 -7.398438 0.742188 -7.617188 0.953125 -7.796875 C 1.160156 -7.972656 1.394531 -8.109375 1.65625 -8.203125 C 1.925781 -8.296875 2.207031 -8.34375 2.5 -8.34375 C 2.800781 -8.34375 3.082031 -8.296875 3.34375 -8.203125 C 3.613281 -8.109375 3.851562 -7.972656 4.0625 -7.796875 C 4.269531 -7.617188 4.429688 -7.398438 4.546875 -7.140625 C 4.671875 -6.890625 4.734375 -6.601562 4.734375 -6.28125 Z M 2.515625 -6.921875 C 2.316406 -6.921875 2.160156 -6.84375 2.046875 -6.6875 C 1.929688 -6.539062 1.875 -6.375 1.875 -6.1875 L 1.875 -2.015625 C 1.875 -1.828125 1.925781 -1.660156 2.03125 -1.515625 C 2.144531 -1.367188 2.300781 -1.296875 2.5 -1.296875 C 2.707031 -1.296875 2.867188 -1.363281 2.984375 -1.5 C 3.097656 -1.632812 3.15625 -1.796875 3.15625 -1.984375 L 3.15625 -6.1875 C 3.15625 -6.375 3.097656 -6.539062 2.984375 -6.6875 C 2.867188 -6.84375 2.710938 -6.921875 2.515625 -6.921875 Z M 2.515625 -6.921875 "/></g></g></g><g fill="#26a9e0" fill-opacity="1"><g transform="translate(10.96484, 17.263535)"><g><path d="M 6.078125 -0.234375 L 6.078125 -6.203125 C 6.078125 -6.378906 6.019531 -6.539062 5.90625 -6.6875 C 5.789062 -6.832031 5.632812 -6.90625 5.4375 -6.90625 C 5.25 -6.90625 5.097656 -6.835938 4.984375 -6.703125 C 4.867188 -6.566406 4.8125 -6.40625 4.8125 -6.21875 L 4.8125 -0.21875 C 4.8125 -0.15625 4.800781 -0.101562 4.78125 -0.0625 C 4.757812 -0.0195312 4.710938 0 4.640625 0 L 3.390625 0 C 3.347656 0 3.304688 -0.0195312 3.265625 -0.0625 C 3.234375 -0.113281 3.21875 -0.171875 3.21875 -0.234375 L 3.21875 -6.203125 C 3.21875 -6.378906 3.160156 -6.539062 3.046875 -6.6875 C 2.941406 -6.832031 2.789062 -6.90625 2.59375 -6.90625 C 2.394531 -6.90625 2.238281 -6.832031 2.125 -6.6875 C 2.007812 -6.539062 1.953125 -6.378906 1.953125 -6.203125 L 1.953125 -0.234375 C 1.953125 -0.171875 1.941406 -0.113281 1.921875 -0.0625 C 1.898438 -0.0195312 1.851562 0 1.78125 0 L 0.53125 0 C 0.488281 0 0.453125 -0.0195312 0.421875 -0.0625 C 0.390625 -0.113281 0.375 -0.171875 0.375 -0.234375 L 0.375 -6.28125 C 0.375 -6.570312 0.429688 -6.84375 0.546875 -7.09375 C 0.671875 -7.34375 0.832031 -7.5625 1.03125 -7.75 C 1.238281 -7.9375 1.472656 -8.082031 1.734375 -8.1875 C 2.003906 -8.289062 2.289062 -8.34375 2.59375 -8.34375 C 2.851562 -8.34375 3.101562 -8.296875 3.34375 -8.203125 C 3.59375 -8.117188 3.816406 -8.003906 4.015625 -7.859375 C 4.203125 -8.003906 4.421875 -8.117188 4.671875 -8.203125 C 4.921875 -8.296875 5.175781 -8.34375 5.4375 -8.34375 C 5.726562 -8.34375 6.007812 -8.289062 6.28125 -8.1875 C 6.550781 -8.082031 6.785156 -7.9375 6.984375 -7.75 C 7.191406 -7.5625 7.351562 -7.34375 7.46875 -7.09375 C 7.59375 -6.84375 7.65625 -6.570312 7.65625 -6.28125 L 7.65625 -0.234375 C 7.65625 -0.171875 7.640625 -0.113281 7.609375 -0.0625 C 7.585938 -0.0195312 7.539062 0 7.46875 0 L 6.265625 0 C 6.203125 0 6.15625 -0.0195312 6.125 -0.0625 C 6.09375 -0.113281 6.078125 -0.171875 6.078125 -0.234375 Z M 6.078125 -0.234375 "/></g></g></g><g fill="#ff00ff" fill-opacity="1"><g transform="translate(1.496628, 24.548933)"><g><path d="M 3.015625 -2.25 L 4.0625 -2.25 C 4.125 -2.25 4.164062 -2.234375 4.1875 -2.203125 C 4.207031 -2.171875 4.21875 -2.125 4.21875 -2.0625 L 4.21875 -1.6875 C 4.21875 -1.4375 4.171875 -1.203125 4.078125 -0.984375 C 3.984375 -0.765625 3.847656 -0.570312 3.671875 -0.40625 C 3.492188 -0.25 3.285156 -0.125 3.046875 -0.03125 C 2.804688 0.0625 2.546875 0.109375 2.265625 0.109375 C 1.992188 0.109375 1.734375 0.0664062 1.484375 -0.015625 C 1.234375 -0.0976562 1.015625 -0.21875 0.828125 -0.375 C 0.648438 -0.539062 0.507812 -0.734375 0.40625 -0.953125 C 0.300781 -1.179688 0.25 -1.425781 0.25 -1.6875 L 0.25 -4.390625 C 0.25 -4.640625 0.300781 -4.867188 0.40625 -5.078125 C 0.507812 -5.296875 0.648438 -5.488281 0.828125 -5.65625 C 1.015625 -5.820312 1.234375 -5.953125 1.484375 -6.046875 C 1.734375 -6.140625 1.992188 -6.1875 2.265625 -6.1875 C 2.546875 -6.1875 2.804688 -6.140625 3.046875 -6.046875 C 3.285156 -5.953125 3.492188 -5.820312 3.671875 -5.65625 C 3.847656 -5.488281 3.984375 -5.296875 4.078125 -5.078125 C 4.171875 -4.867188 4.21875 -4.640625 4.21875 -4.390625 L 4.21875 -3.921875 C 4.21875 -3.847656 4.207031 -3.796875 4.1875 -3.765625 C 4.164062 -3.742188 4.125 -3.734375 4.0625 -3.734375 L 3.0625 -3.734375 C 2.976562 -3.734375 2.921875 -3.742188 2.890625 -3.765625 C 2.859375 -3.796875 2.84375 -3.847656 2.84375 -3.921875 L 2.84375 -4.34375 C 2.84375 -4.476562 2.796875 -4.597656 2.703125 -4.703125 C 2.609375 -4.816406 2.472656 -4.875 2.296875 -4.875 C 2.140625 -4.875 2.007812 -4.816406 1.90625 -4.703125 C 1.800781 -4.597656 1.75 -4.476562 1.75 -4.34375 L 1.75 -1.734375 C 1.75 -1.597656 1.800781 -1.472656 1.90625 -1.359375 C 2.007812 -1.253906 2.140625 -1.203125 2.296875 -1.203125 C 2.472656 -1.203125 2.609375 -1.257812 2.703125 -1.375 C 2.796875 -1.488281 2.84375 -1.609375 2.84375 -1.734375 L 2.84375 -2.03125 C 2.84375 -2.113281 2.851562 -2.171875 2.875 -2.203125 C 2.90625 -2.234375 2.953125 -2.25 3.015625 -2.25 Z M 3.015625 -2.25 "/></g></g></g><g fill="#ff00ff" fill-opacity="1"><g transform="translate(5.670847, 24.548933)"><g><path d="M 3.1875 -5.90625 L 3.1875 -5.0625 C 3.1875 -4.976562 3.15625 -4.914062 3.09375 -4.875 C 3.039062 -4.84375 2.976562 -4.828125 2.90625 -4.828125 L 2.609375 -4.828125 C 2.359375 -4.828125 2.15625 -4.742188 2 -4.578125 C 1.851562 -4.421875 1.78125 -4.195312 1.78125 -3.90625 L 1.78125 -0.28125 C 1.78125 -0.175781 1.75 -0.101562 1.6875 -0.0625 C 1.632812 -0.0195312 1.578125 0 1.515625 0 L 0.46875 0 C 0.414062 0 0.367188 -0.015625 0.328125 -0.046875 C 0.296875 -0.0859375 0.28125 -0.140625 0.28125 -0.203125 L 0.28125 -4.109375 C 0.28125 -4.484375 0.34375 -4.800781 0.46875 -5.0625 C 0.59375 -5.332031 0.757812 -5.546875 0.96875 -5.703125 C 1.175781 -5.867188 1.398438 -5.988281 1.640625 -6.0625 C 1.890625 -6.144531 2.132812 -6.1875 2.375 -6.1875 C 2.5 -6.1875 2.613281 -6.179688 2.71875 -6.171875 C 2.832031 -6.171875 2.929688 -6.160156 3.015625 -6.140625 C 3.128906 -6.109375 3.1875 -6.03125 3.1875 -5.90625 Z M 3.1875 -5.90625 "/></g></g></g><g fill="#ff00ff" fill-opacity="1"><g transform="translate(8.675395, 24.548933)"><g><path d="M 0.34375 -0.203125 L 0.34375 -5.890625 C 0.34375 -5.953125 0.363281 -6 0.40625 -6.03125 C 0.445312 -6.0625 0.492188 -6.078125 0.546875 -6.078125 L 1.640625 -6.078125 C 1.703125 -6.078125 1.753906 -6.054688 1.796875 -6.015625 C 1.835938 -5.984375 1.859375 -5.941406 1.859375 -5.890625 L 1.859375 -0.203125 C 1.859375 -0.128906 1.835938 -0.078125 1.796875 -0.046875 C 1.753906 -0.015625 1.703125 0 1.640625 0 L 0.546875 0 C 0.410156 0 0.34375 -0.0664062 0.34375 -0.203125 Z M 1.890625 -7.640625 L 1.890625 -6.8125 C 1.890625 -6.707031 1.863281 -6.632812 1.8125 -6.59375 C 1.757812 -6.550781 1.679688 -6.53125 1.578125 -6.53125 L 0.625 -6.53125 C 0.519531 -6.53125 0.4375 -6.546875 0.375 -6.578125 C 0.3125 -6.617188 0.28125 -6.695312 0.28125 -6.8125 L 0.28125 -7.640625 C 0.28125 -7.734375 0.304688 -7.804688 0.359375 -7.859375 C 0.410156 -7.921875 0.5 -7.953125 0.625 -7.953125 L 1.578125 -7.953125 C 1.691406 -7.953125 1.769531 -7.925781 1.8125 -7.875 C 1.863281 -7.820312 1.890625 -7.742188 1.890625 -7.640625 Z M 1.890625 -7.640625 "/></g></g></g><g fill="#ff00ff" fill-opacity="1"><g transform="translate(10.64683, 24.548933)"><g><path d="M 2.8125 -1.765625 L 2.8125 -2.671875 L 2.53125 -2.671875 C 2.3125 -2.671875 2.140625 -2.632812 2.015625 -2.5625 C 1.898438 -2.5 1.816406 -2.410156 1.765625 -2.296875 C 1.722656 -2.179688 1.703125 -2.0625 1.703125 -1.9375 L 1.703125 -1.84375 C 1.703125 -1.695312 1.726562 -1.570312 1.78125 -1.46875 C 1.84375 -1.375 1.921875 -1.304688 2.015625 -1.265625 C 2.109375 -1.222656 2.195312 -1.203125 2.28125 -1.203125 C 2.40625 -1.203125 2.523438 -1.242188 2.640625 -1.328125 C 2.753906 -1.421875 2.8125 -1.566406 2.8125 -1.765625 Z M 2.109375 -3.734375 L 2.8125 -3.734375 L 2.8125 -4.15625 C 2.8125 -4.28125 2.785156 -4.40625 2.734375 -4.53125 C 2.679688 -4.65625 2.597656 -4.757812 2.484375 -4.84375 C 2.378906 -4.925781 2.238281 -4.96875 2.0625 -4.96875 C 1.820312 -4.96875 1.617188 -4.929688 1.453125 -4.859375 C 1.285156 -4.796875 1.144531 -4.726562 1.03125 -4.65625 C 1 -4.632812 0.96875 -4.617188 0.9375 -4.609375 C 0.914062 -4.597656 0.890625 -4.59375 0.859375 -4.59375 C 0.816406 -4.59375 0.78125 -4.617188 0.75 -4.671875 L 0.453125 -5.328125 C 0.421875 -5.378906 0.40625 -5.429688 0.40625 -5.484375 C 0.414062 -5.546875 0.472656 -5.609375 0.578125 -5.671875 C 0.722656 -5.765625 0.875 -5.847656 1.03125 -5.921875 C 1.195312 -6.003906 1.378906 -6.066406 1.578125 -6.109375 C 1.785156 -6.160156 2.023438 -6.1875 2.296875 -6.1875 C 2.546875 -6.1875 2.789062 -6.144531 3.03125 -6.0625 C 3.269531 -5.988281 3.484375 -5.867188 3.671875 -5.703125 C 3.859375 -5.546875 4.007812 -5.347656 4.125 -5.109375 C 4.238281 -4.878906 4.296875 -4.609375 4.296875 -4.296875 L 4.296875 -1.703125 C 4.296875 -1.410156 4.242188 -1.160156 4.140625 -0.953125 C 4.046875 -0.742188 3.921875 -0.566406 3.765625 -0.421875 C 3.609375 -0.285156 3.4375 -0.175781 3.25 -0.09375 C 3.070312 -0.0195312 2.894531 0.03125 2.71875 0.0625 C 2.539062 0.09375 2.390625 0.109375 2.265625 0.109375 C 2.023438 0.109375 1.785156 0.0703125 1.546875 0 C 1.304688 -0.0703125 1.082031 -0.179688 0.875 -0.328125 C 0.675781 -0.484375 0.515625 -0.6875 0.390625 -0.9375 C 0.265625 -1.1875 0.203125 -1.484375 0.203125 -1.828125 L 0.203125 -1.953125 C 0.203125 -2.265625 0.253906 -2.535156 0.359375 -2.765625 C 0.460938 -2.992188 0.601562 -3.175781 0.78125 -3.3125 C 0.957031 -3.457031 1.160156 -3.5625 1.390625 -3.625 C 1.617188 -3.695312 1.859375 -3.734375 2.109375 -3.734375 Z M 2.109375 -3.734375 "/></g></g></g><g fill="#ff00ff" fill-opacity="1"><g transform="translate(14.963548, 24.548933)"><g><path d="M 2.59375 0 L 2.21875 0 C 1.988281 0 1.773438 -0.0234375 1.578125 -0.078125 C 1.378906 -0.140625 1.203125 -0.234375 1.046875 -0.359375 C 0.898438 -0.492188 0.78125 -0.675781 0.6875 -0.90625 C 0.601562 -1.132812 0.5625 -1.425781 0.5625 -1.78125 L 0.5625 -4.75 L 0.21875 -4.75 C 0.1875 -4.75 0.148438 -4.769531 0.109375 -4.8125 C 0.0664062 -4.851562 0.046875 -4.90625 0.046875 -4.96875 L 0.046875 -5.859375 C 0.046875 -5.929688 0.0664062 -5.984375 0.109375 -6.015625 C 0.148438 -6.054688 0.1875 -6.078125 0.21875 -6.078125 L 0.5625 -6.078125 L 0.5625 -7 C 0.5625 -7.0625 0.570312 -7.109375 0.59375 -7.140625 C 0.625 -7.179688 0.671875 -7.210938 0.734375 -7.234375 L 1.84375 -7.5625 C 1.851562 -7.5625 1.875 -7.5625 1.90625 -7.5625 C 2.019531 -7.5625 2.078125 -7.492188 2.078125 -7.359375 L 2.078125 -6.078125 L 2.671875 -6.078125 C 2.785156 -6.078125 2.84375 -6.003906 2.84375 -5.859375 L 2.84375 -4.96875 C 2.84375 -4.90625 2.828125 -4.851562 2.796875 -4.8125 C 2.765625 -4.769531 2.71875 -4.75 2.65625 -4.75 L 2.078125 -4.75 L 2.078125 -1.859375 C 2.078125 -1.691406 2.113281 -1.5625 2.1875 -1.46875 C 2.269531 -1.382812 2.421875 -1.34375 2.640625 -1.34375 L 2.75 -1.34375 C 2.832031 -1.34375 2.878906 -1.316406 2.890625 -1.265625 C 2.910156 -1.210938 2.921875 -1.164062 2.921875 -1.125 L 2.921875 -0.1875 C 2.921875 -0.144531 2.90625 -0.101562 2.875 -0.0625 C 2.84375 -0.0195312 2.75 0 2.59375 0 Z M 2.59375 0 "/></g></g></g><g fill="#ff00ff" fill-opacity="1"><g transform="translate(17.837473, 24.548933)"><g><path d="M 0.34375 -0.203125 L 0.34375 -5.890625 C 0.34375 -5.953125 0.363281 -6 0.40625 -6.03125 C 0.445312 -6.0625 0.492188 -6.078125 0.546875 -6.078125 L 1.640625 -6.078125 C 1.703125 -6.078125 1.753906 -6.054688 1.796875 -6.015625 C 1.835938 -5.984375 1.859375 -5.941406 1.859375 -5.890625 L 1.859375 -0.203125 C 1.859375 -0.128906 1.835938 -0.078125 1.796875 -0.046875 C 1.753906 -0.015625 1.703125 0 1.640625 0 L 0.546875 0 C 0.410156 0 0.34375 -0.0664062 0.34375 -0.203125 Z M 1.890625 -7.640625 L 1.890625 -6.8125 C 1.890625 -6.707031 1.863281 -6.632812 1.8125 -6.59375 C 1.757812 -6.550781 1.679688 -6.53125 1.578125 -6.53125 L 0.625 -6.53125 C 0.519531 -6.53125 0.4375 -6.546875 0.375 -6.578125 C 0.3125 -6.617188 0.28125 -6.695312 0.28125 -6.8125 L 0.28125 -7.640625 C 0.28125 -7.734375 0.304688 -7.804688 0.359375 -7.859375 C 0.410156 -7.921875 0.5 -7.953125 0.625 -7.953125 L 1.578125 -7.953125 C 1.691406 -7.953125 1.769531 -7.925781 1.8125 -7.875 C 1.863281 -7.820312 1.890625 -7.742188 1.890625 -7.640625 Z M 1.890625 -7.640625 "/></g></g></g><g fill="#ff00ff" fill-opacity="1"><g transform="translate(19.808908, 24.548933)"><g><path d="M 2.296875 -2.375 L 2.34375 -1.953125 L 2.390625 -2.375 L 3.09375 -5.890625 C 3.101562 -5.960938 3.128906 -6.007812 3.171875 -6.03125 C 3.210938 -6.0625 3.265625 -6.078125 3.328125 -6.078125 L 4.453125 -6.078125 C 4.546875 -6.078125 4.601562 -6.046875 4.625 -5.984375 C 4.644531 -5.921875 4.640625 -5.84375 4.609375 -5.75 L 3.15625 -0.171875 C 3.113281 -0.0546875 3.039062 0 2.9375 0 L 1.765625 0 C 1.640625 0 1.566406 -0.0625 1.546875 -0.1875 L 0.09375 -5.75 C 0.0390625 -5.96875 0.09375 -6.078125 0.25 -6.078125 L 1.390625 -6.078125 C 1.515625 -6.078125 1.585938 -6.007812 1.609375 -5.875 Z M 2.296875 -2.375 "/></g></g></g><g fill="#ff00ff" fill-opacity="1"><g transform="translate(24.268124, 24.548933)"><g><path d="M 4.3125 -4.390625 L 4.3125 -1.6875 C 4.3125 -1.425781 4.257812 -1.179688 4.15625 -0.953125 C 4.050781 -0.734375 3.90625 -0.539062 3.71875 -0.375 C 3.53125 -0.21875 3.3125 -0.0976562 3.0625 -0.015625 C 2.820312 0.0664062 2.5625 0.109375 2.28125 0.109375 C 2 0.109375 1.734375 0.0664062 1.484375 -0.015625 C 1.242188 -0.0976562 1.03125 -0.21875 0.84375 -0.375 C 0.65625 -0.539062 0.507812 -0.734375 0.40625 -0.953125 C 0.300781 -1.179688 0.25 -1.425781 0.25 -1.6875 L 0.25 -4.390625 C 0.25 -4.640625 0.300781 -4.875 0.40625 -5.09375 C 0.507812 -5.3125 0.648438 -5.5 0.828125 -5.65625 C 1.015625 -5.820312 1.234375 -5.953125 1.484375 -6.046875 C 1.734375 -6.140625 1.992188 -6.1875 2.265625 -6.1875 C 2.546875 -6.1875 2.8125 -6.144531 3.0625 -6.0625 C 3.3125 -5.976562 3.53125 -5.851562 3.71875 -5.6875 C 3.90625 -5.53125 4.050781 -5.34375 4.15625 -5.125 C 4.257812 -4.90625 4.3125 -4.660156 4.3125 -4.390625 Z M 2.28125 -4.875 C 2.125 -4.875 1.992188 -4.816406 1.890625 -4.703125 C 1.796875 -4.597656 1.75 -4.476562 1.75 -4.34375 L 1.75 -1.734375 C 1.75 -1.597656 1.796875 -1.472656 1.890625 -1.359375 C 1.992188 -1.253906 2.125 -1.203125 2.28125 -1.203125 C 2.445312 -1.203125 2.578125 -1.253906 2.671875 -1.359375 C 2.765625 -1.472656 2.8125 -1.597656 2.8125 -1.734375 L 2.8125 -4.34375 C 2.8125 -4.476562 2.765625 -4.597656 2.671875 -4.703125 C 2.578125 -4.816406 2.445312 -4.875 2.28125 -4.875 Z M 2.28125 -4.875 "/></g></g></g><g fill="#00ffff" fill-opacity="1"><g transform="translate(1.040583, 24.548933)"><g><path d="M 3.015625 -2.25 L 4.0625 -2.25 C 4.125 -2.25 4.164062 -2.234375 4.1875 -2.203125 C 4.207031 -2.171875 4.21875 -2.125 4.21875 -2.0625 L 4.21875 -1.6875 C 4.21875 -1.4375 4.171875 -1.203125 4.078125 -0.984375 C 3.984375 -0.765625 3.847656 -0.570312 3.671875 -0.40625 C 3.492188 -0.25 3.285156 -0.125 3.046875 -0.03125 C 2.804688 0.0625 2.546875 0.109375 2.265625 0.109375 C 1.992188 0.109375 1.734375 0.0664062 1.484375 -0.015625 C 1.234375 -0.0976562 1.015625 -0.21875 0.828125 -0.375 C 0.648438 -0.539062 0.507812 -0.734375 0.40625 -0.953125 C 0.300781 -1.179688 0.25 -1.425781 0.25 -1.6875 L 0.25 -4.390625 C 0.25 -4.640625 0.300781 -4.867188 0.40625 -5.078125 C 0.507812 -5.296875 0.648438 -5.488281 0.828125 -5.65625 C 1.015625 -5.820312 1.234375 -5.953125 1.484375 -6.046875 C 1.734375 -6.140625 1.992188 -6.1875 2.265625 -6.1875 C 2.546875 -6.1875 2.804688 -6.140625 3.046875 -6.046875 C 3.285156 -5.953125 3.492188 -5.820312 3.671875 -5.65625 C 3.847656 -5.488281 3.984375 -5.296875 4.078125 -5.078125 C 4.171875 -4.867188 4.21875 -4.640625 4.21875 -4.390625 L 4.21875 -3.921875 C 4.21875 -3.847656 4.207031 -3.796875 4.1875 -3.765625 C 4.164062 -3.742188 4.125 -3.734375 4.0625 -3.734375 L 3.0625 -3.734375 C 2.976562 -3.734375 2.921875 -3.742188 2.890625 -3.765625 C 2.859375 -3.796875 2.84375 -3.847656 2.84375 -3.921875 L 2.84375 -4.34375 C 2.84375 -4.476562 2.796875 -4.597656 2.703125 -4.703125 C 2.609375 -4.816406 2.472656 -4.875 2.296875 -4.875 C 2.140625 -4.875 2.007812 -4.816406 1.90625 -4.703125 C 1.800781 -4.597656 1.75 -4.476562 1.75 -4.34375 L 1.75 -1.734375 C 1.75 -1.597656 1.800781 -1.472656 1.90625 -1.359375 C 2.007812 -1.253906 2.140625 -1.203125 2.296875 -1.203125 C 2.472656 -1.203125 2.609375 -1.257812 2.703125 -1.375 C 2.796875 -1.488281 2.84375 -1.609375 2.84375 -1.734375 L 2.84375 -2.03125 C 2.84375 -2.113281 2.851562 -2.171875 2.875 -2.203125 C 2.90625 -2.234375 2.953125 -2.25 3.015625 -2.25 Z M 3.015625 -2.25 "/></g></g></g><g fill="#00ffff" fill-opacity="1"><g transform="translate(5.214802, 24.548933)"><g><path d="M 3.1875 -5.90625 L 3.1875 -5.0625 C 3.1875 -4.976562 3.15625 -4.914062 3.09375 -4.875 C 3.039062 -4.84375 2.976562 -4.828125 2.90625 -4.828125 L 2.609375 -4.828125 C 2.359375 -4.828125 2.15625 -4.742188 2 -4.578125 C 1.851562 -4.421875 1.78125 -4.195312 1.78125 -3.90625 L 1.78125 -0.28125 C 1.78125 -0.175781 1.75 -0.101562 1.6875 -0.0625 C 1.632812 -0.0195312 1.578125 0 1.515625 0 L 0.46875 0 C 0.414062 0 0.367188 -0.015625 0.328125 -0.046875 C 0.296875 -0.0859375 0.28125 -0.140625 0.28125 -0.203125 L 0.28125 -4.109375 C 0.28125 -4.484375 0.34375 -4.800781 0.46875 -5.0625 C 0.59375 -5.332031 0.757812 -5.546875 0.96875 -5.703125 C 1.175781 -5.867188 1.398438 -5.988281 1.640625 -6.0625 C 1.890625 -6.144531 2.132812 -6.1875 2.375 -6.1875 C 2.5 -6.1875 2.613281 -6.179688 2.71875 -6.171875 C 2.832031 -6.171875 2.929688 -6.160156 3.015625 -6.140625 C 3.128906 -6.109375 3.1875 -6.03125 3.1875 -5.90625 Z M 3.1875 -5.90625 "/></g></g></g><g fill="#00ffff" fill-opacity="1"><g transform="translate(8.21935, 24.548933)"><g><path d="M 0.34375 -0.203125 L 0.34375 -5.890625 C 0.34375 -5.953125 0.363281 -6 0.40625 -6.03125 C 0.445312 -6.0625 0.492188 -6.078125 0.546875 -6.078125 L 1.640625 -6.078125 C 1.703125 -6.078125 1.753906 -6.054688 1.796875 -6.015625 C 1.835938 -5.984375 1.859375 -5.941406 1.859375 -5.890625 L 1.859375 -0.203125 C 1.859375 -0.128906 1.835938 -0.078125 1.796875 -0.046875 C 1.753906 -0.015625 1.703125 0 1.640625 0 L 0.546875 0 C 0.410156 0 0.34375 -0.0664062 0.34375 -0.203125 Z M 1.890625 -7.640625 L 1.890625 -6.8125 C 1.890625 -6.707031 1.863281 -6.632812 1.8125 -6.59375 C 1.757812 -6.550781 1.679688 -6.53125 1.578125 -6.53125 L 0.625 -6.53125 C 0.519531 -6.53125 0.4375 -6.546875 0.375 -6.578125 C 0.3125 -6.617188 0.28125 -6.695312 0.28125 -6.8125 L 0.28125 -7.640625 C 0.28125 -7.734375 0.304688 -7.804688 0.359375 -7.859375 C 0.410156 -7.921875 0.5 -7.953125 0.625 -7.953125 L 1.578125 -7.953125 C 1.691406 -7.953125 1.769531 -7.925781 1.8125 -7.875 C 1.863281 -7.820312 1.890625 -7.742188 1.890625 -7.640625 Z M 1.890625 -7.640625 "/></g></g></g><g fill="#00ffff" fill-opacity="1"><g transform="translate(10.190785, 24.548933)"><g><path d="M 2.8125 -1.765625 L 2.8125 -2.671875 L 2.53125 -2.671875 C 2.3125 -2.671875 2.140625 -2.632812 2.015625 -2.5625 C 1.898438 -2.5 1.816406 -2.410156 1.765625 -2.296875 C 1.722656 -2.179688 1.703125 -2.0625 1.703125 -1.9375 L 1.703125 -1.84375 C 1.703125 -1.695312 1.726562 -1.570312 1.78125 -1.46875 C 1.84375 -1.375 1.921875 -1.304688 2.015625 -1.265625 C 2.109375 -1.222656 2.195312 -1.203125 2.28125 -1.203125 C 2.40625 -1.203125 2.523438 -1.242188 2.640625 -1.328125 C 2.753906 -1.421875 2.8125 -1.566406 2.8125 -1.765625 Z M 2.109375 -3.734375 L 2.8125 -3.734375 L 2.8125 -4.15625 C 2.8125 -4.28125 2.785156 -4.40625 2.734375 -4.53125 C 2.679688 -4.65625 2.597656 -4.757812 2.484375 -4.84375 C 2.378906 -4.925781 2.238281 -4.96875 2.0625 -4.96875 C 1.820312 -4.96875 1.617188 -4.929688 1.453125 -4.859375 C 1.285156 -4.796875 1.144531 -4.726562 1.03125 -4.65625 C 1 -4.632812 0.96875 -4.617188 0.9375 -4.609375 C 0.914062 -4.597656 0.890625 -4.59375 0.859375 -4.59375 C 0.816406 -4.59375 0.78125 -4.617188 0.75 -4.671875 L 0.453125 -5.328125 C 0.421875 -5.378906 0.40625 -5.429688 0.40625 -5.484375 C 0.414062 -5.546875 0.472656 -5.609375 0.578125 -5.671875 C 0.722656 -5.765625 0.875 -5.847656 1.03125 -5.921875 C 1.195312 -6.003906 1.378906 -6.066406 1.578125 -6.109375 C 1.785156 -6.160156 2.023438 -6.1875 2.296875 -6.1875 C 2.546875 -6.1875 2.789062 -6.144531 3.03125 -6.0625 C 3.269531 -5.988281 3.484375 -5.867188 3.671875 -5.703125 C 3.859375 -5.546875 4.007812 -5.347656 4.125 -5.109375 C 4.238281 -4.878906 4.296875 -4.609375 4.296875 -4.296875 L 4.296875 -1.703125 C 4.296875 -1.410156 4.242188 -1.160156 4.140625 -0.953125 C 4.046875 -0.742188 3.921875 -0.566406 3.765625 -0.421875 C 3.609375 -0.285156 3.4375 -0.175781 3.25 -0.09375 C 3.070312 -0.0195312 2.894531 0.03125 2.71875 0.0625 C 2.539062 0.09375 2.390625 0.109375 2.265625 0.109375 C 2.023438 0.109375 1.785156 0.0703125 1.546875 0 C 1.304688 -0.0703125 1.082031 -0.179688 0.875 -0.328125 C 0.675781 -0.484375 0.515625 -0.6875 0.390625 -0.9375 C 0.265625 -1.1875 0.203125 -1.484375 0.203125 -1.828125 L 0.203125 -1.953125 C 0.203125 -2.265625 0.253906 -2.535156 0.359375 -2.765625 C 0.460938 -2.992188 0.601562 -3.175781 0.78125 -3.3125 C 0.957031 -3.457031 1.160156 -3.5625 1.390625 -3.625 C 1.617188 -3.695312 1.859375 -3.734375 2.109375 -3.734375 Z M 2.109375 -3.734375 "/></g></g></g><g fill="#00ffff" fill-opacity="1"><g transform="translate(14.507503, 24.548933)"><g><path d="M 2.59375 0 L 2.21875 0 C 1.988281 0 1.773438 -0.0234375 1.578125 -0.078125 C 1.378906 -0.140625 1.203125 -0.234375 1.046875 -0.359375 C 0.898438 -0.492188 0.78125 -0.675781 0.6875 -0.90625 C 0.601562 -1.132812 0.5625 -1.425781 0.5625 -1.78125 L 0.5625 -4.75 L 0.21875 -4.75 C 0.1875 -4.75 0.148438 -4.769531 0.109375 -4.8125 C 0.0664062 -4.851562 0.046875 -4.90625 0.046875 -4.96875 L 0.046875 -5.859375 C 0.046875 -5.929688 0.0664062 -5.984375 0.109375 -6.015625 C 0.148438 -6.054688 0.1875 -6.078125 0.21875 -6.078125 L 0.5625 -6.078125 L 0.5625 -7 C 0.5625 -7.0625 0.570312 -7.109375 0.59375 -7.140625 C 0.625 -7.179688 0.671875 -7.210938 0.734375 -7.234375 L 1.84375 -7.5625 C 1.851562 -7.5625 1.875 -7.5625 1.90625 -7.5625 C 2.019531 -7.5625 2.078125 -7.492188 2.078125 -7.359375 L 2.078125 -6.078125 L 2.671875 -6.078125 C 2.785156 -6.078125 2.84375 -6.003906 2.84375 -5.859375 L 2.84375 -4.96875 C 2.84375 -4.90625 2.828125 -4.851562 2.796875 -4.8125 C 2.765625 -4.769531 2.71875 -4.75 2.65625 -4.75 L 2.078125 -4.75 L 2.078125 -1.859375 C 2.078125 -1.691406 2.113281 -1.5625 2.1875 -1.46875 C 2.269531 -1.382812 2.421875 -1.34375 2.640625 -1.34375 L 2.75 -1.34375 C 2.832031 -1.34375 2.878906 -1.316406 2.890625 -1.265625 C 2.910156 -1.210938 2.921875 -1.164062 2.921875 -1.125 L 2.921875 -0.1875 C 2.921875 -0.144531 2.90625 -0.101562 2.875 -0.0625 C 2.84375 -0.0195312 2.75 0 2.59375 0 Z M 2.59375 0 "/></g></g></g><g fill="#00ffff" fill-opacity="1"><g transform="translate(17.381428, 24.548933)"><g><path d="M 0.34375 -0.203125 L 0.34375 -5.890625 C 0.34375 -5.953125 0.363281 -6 0.40625 -6.03125 C 0.445312 -6.0625 0.492188 -6.078125 0.546875 -6.078125 L 1.640625 -6.078125 C 1.703125 -6.078125 1.753906 -6.054688 1.796875 -6.015625 C 1.835938 -5.984375 1.859375 -5.941406 1.859375 -5.890625 L 1.859375 -0.203125 C 1.859375 -0.128906 1.835938 -0.078125 1.796875 -0.046875 C 1.753906 -0.015625 1.703125 0 1.640625 0 L 0.546875 0 C 0.410156 0 0.34375 -0.0664062 0.34375 -0.203125 Z M 1.890625 -7.640625 L 1.890625 -6.8125 C 1.890625 -6.707031 1.863281 -6.632812 1.8125 -6.59375 C 1.757812 -6.550781 1.679688 -6.53125 1.578125 -6.53125 L 0.625 -6.53125 C 0.519531 -6.53125 0.4375 -6.546875 0.375 -6.578125 C 0.3125 -6.617188 0.28125 -6.695312 0.28125 -6.8125 L 0.28125 -7.640625 C 0.28125 -7.734375 0.304688 -7.804688 0.359375 -7.859375 C 0.410156 -7.921875 0.5 -7.953125 0.625 -7.953125 L 1.578125 -7.953125 C 1.691406 -7.953125 1.769531 -7.925781 1.8125 -7.875 C 1.863281 -7.820312 1.890625 -7.742188 1.890625 -7.640625 Z M 1.890625 -7.640625 "/></g></g></g><g fill="#00ffff" fill-opacity="1"><g transform="translate(19.352863, 24.548933)"><g><path d="M 2.296875 -2.375 L 2.34375 -1.953125 L 2.390625 -2.375 L 3.09375 -5.890625 C 3.101562 -5.960938 3.128906 -6.007812 3.171875 -6.03125 C 3.210938 -6.0625 3.265625 -6.078125 3.328125 -6.078125 L 4.453125 -6.078125 C 4.546875 -6.078125 4.601562 -6.046875 4.625 -5.984375 C 4.644531 -5.921875 4.640625 -5.84375 4.609375 -5.75 L 3.15625 -0.171875 C 3.113281 -0.0546875 3.039062 0 2.9375 0 L 1.765625 0 C 1.640625 0 1.566406 -0.0625 1.546875 -0.1875 L 0.09375 -5.75 C 0.0390625 -5.96875 0.09375 -6.078125 0.25 -6.078125 L 1.390625 -6.078125 C 1.515625 -6.078125 1.585938 -6.007812 1.609375 -5.875 Z M 2.296875 -2.375 "/></g></g></g><g fill="#00ffff" fill-opacity="1"><g transform="translate(23.812079, 24.548933)"><g><path d="M 4.3125 -4.390625 L 4.3125 -1.6875 C 4.3125 -1.425781 4.257812 -1.179688 4.15625 -0.953125 C 4.050781 -0.734375 3.90625 -0.539062 3.71875 -0.375 C 3.53125 -0.21875 3.3125 -0.0976562 3.0625 -0.015625 C 2.820312 0.0664062 2.5625 0.109375 2.28125 0.109375 C 2 0.109375 1.734375 0.0664062 1.484375 -0.015625 C 1.242188 -0.0976562 1.03125 -0.21875 0.84375 -0.375 C 0.65625 -0.539062 0.507812 -0.734375 0.40625 -0.953125 C 0.300781 -1.179688 0.25 -1.425781 0.25 -1.6875 L 0.25 -4.390625 C 0.25 -4.640625 0.300781 -4.875 0.40625 -5.09375 C 0.507812 -5.3125 0.648438 -5.5 0.828125 -5.65625 C 1.015625 -5.820312 1.234375 -5.953125 1.484375 -6.046875 C 1.734375 -6.140625 1.992188 -6.1875 2.265625 -6.1875 C 2.546875 -6.1875 2.8125 -6.144531 3.0625 -6.0625 C 3.3125 -5.976562 3.53125 -5.851562 3.71875 -5.6875 C 3.90625 -5.53125 4.050781 -5.34375 4.15625 -5.125 C 4.257812 -4.90625 4.3125 -4.660156 4.3125 -4.390625 Z M 2.28125 -4.875 C 2.125 -4.875 1.992188 -4.816406 1.890625 -4.703125 C 1.796875 -4.597656 1.75 -4.476562 1.75 -4.34375 L 1.75 -1.734375 C 1.75 -1.597656 1.796875 -1.472656 1.890625 -1.359375 C 1.992188 -1.253906 2.125 -1.203125 2.28125 -1.203125 C 2.445312 -1.203125 2.578125 -1.253906 2.671875 -1.359375 C 2.765625 -1.472656 2.8125 -1.597656 2.8125 -1.734375 L 2.8125 -4.34375 C 2.8125 -4.476562 2.765625 -4.597656 2.671875 -4.703125 C 2.578125 -4.816406 2.445312 -4.875 2.28125 -4.875 Z M 2.28125 -4.875 "/></g></g></g><g fill="#5e17eb" fill-opacity="1"><g transform="translate(1.268606, 24.548933)"><g><path d="M 3.015625 -2.25 L 4.0625 -2.25 C 4.125 -2.25 4.164062 -2.234375 4.1875 -2.203125 C 4.207031 -2.171875 4.21875 -2.125 4.21875 -2.0625 L 4.21875 -1.6875 C 4.21875 -1.4375 4.171875 -1.203125 4.078125 -0.984375 C 3.984375 -0.765625 3.847656 -0.570312 3.671875 -0.40625 C 3.492188 -0.25 3.285156 -0.125 3.046875 -0.03125 C 2.804688 0.0625 2.546875 0.109375 2.265625 0.109375 C 1.992188 0.109375 1.734375 0.0664062 1.484375 -0.015625 C 1.234375 -0.0976562 1.015625 -0.21875 0.828125 -0.375 C 0.648438 -0.539062 0.507812 -0.734375 0.40625 -0.953125 C 0.300781 -1.179688 0.25 -1.425781 0.25 -1.6875 L 0.25 -4.390625 C 0.25 -4.640625 0.300781 -4.867188 0.40625 -5.078125 C 0.507812 -5.296875 0.648438 -5.488281 0.828125 -5.65625 C 1.015625 -5.820312 1.234375 -5.953125 1.484375 -6.046875 C 1.734375 -6.140625 1.992188 -6.1875 2.265625 -6.1875 C 2.546875 -6.1875 2.804688 -6.140625 3.046875 -6.046875 C 3.285156 -5.953125 3.492188 -5.820312 3.671875 -5.65625 C 3.847656 -5.488281 3.984375 -5.296875 4.078125 -5.078125 C 4.171875 -4.867188 4.21875 -4.640625 4.21875 -4.390625 L 4.21875 -3.921875 C 4.21875 -3.847656 4.207031 -3.796875 4.1875 -3.765625 C 4.164062 -3.742188 4.125 -3.734375 4.0625 -3.734375 L 3.0625 -3.734375 C 2.976562 -3.734375 2.921875 -3.742188 2.890625 -3.765625 C 2.859375 -3.796875 2.84375 -3.847656 2.84375 -3.921875 L 2.84375 -4.34375 C 2.84375 -4.476562 2.796875 -4.597656 2.703125 -4.703125 C 2.609375 -4.816406 2.472656 -4.875 2.296875 -4.875 C 2.140625 -4.875 2.007812 -4.816406 1.90625 -4.703125 C 1.800781 -4.597656 1.75 -4.476562 1.75 -4.34375 L 1.75 -1.734375 C 1.75 -1.597656 1.800781 -1.472656 1.90625 -1.359375 C 2.007812 -1.253906 2.140625 -1.203125 2.296875 -1.203125 C 2.472656 -1.203125 2.609375 -1.257812 2.703125 -1.375 C 2.796875 -1.488281 2.84375 -1.609375 2.84375 -1.734375 L 2.84375 -2.03125 C 2.84375 -2.113281 2.851562 -2.171875 2.875 -2.203125 C 2.90625 -2.234375 2.953125 -2.25 3.015625 -2.25 Z M 3.015625 -2.25 "/></g></g></g><g fill="#5e17eb" fill-opacity="1"><g transform="translate(5.442825, 24.548933)"><g><path d="M 3.1875 -5.90625 L 3.1875 -5.0625 C 3.1875 -4.976562 3.15625 -4.914062 3.09375 -4.875 C 3.039062 -4.84375 2.976562 -4.828125 2.90625 -4.828125 L 2.609375 -4.828125 C 2.359375 -4.828125 2.15625 -4.742188 2 -4.578125 C 1.851562 -4.421875 1.78125 -4.195312 1.78125 -3.90625 L 1.78125 -0.28125 C 1.78125 -0.175781 1.75 -0.101562 1.6875 -0.0625 C 1.632812 -0.0195312 1.578125 0 1.515625 0 L 0.46875 0 C 0.414062 0 0.367188 -0.015625 0.328125 -0.046875 C 0.296875 -0.0859375 0.28125 -0.140625 0.28125 -0.203125 L 0.28125 -4.109375 C 0.28125 -4.484375 0.34375 -4.800781 0.46875 -5.0625 C 0.59375 -5.332031 0.757812 -5.546875 0.96875 -5.703125 C 1.175781 -5.867188 1.398438 -5.988281 1.640625 -6.0625 C 1.890625 -6.144531 2.132812 -6.1875 2.375 -6.1875 C 2.5 -6.1875 2.613281 -6.179688 2.71875 -6.171875 C 2.832031 -6.171875 2.929688 -6.160156 3.015625 -6.140625 C 3.128906 -6.109375 3.1875 -6.03125 3.1875 -5.90625 Z M 3.1875 -5.90625 "/></g></g></g><g fill="#5e17eb" fill-opacity="1"><g transform="translate(8.447372, 24.548933)"><g><path d="M 0.34375 -0.203125 L 0.34375 -5.890625 C 0.34375 -5.953125 0.363281 -6 0.40625 -6.03125 C 0.445312 -6.0625 0.492188 -6.078125 0.546875 -6.078125 L 1.640625 -6.078125 C 1.703125 -6.078125 1.753906 -6.054688 1.796875 -6.015625 C 1.835938 -5.984375 1.859375 -5.941406 1.859375 -5.890625 L 1.859375 -0.203125 C 1.859375 -0.128906 1.835938 -0.078125 1.796875 -0.046875 C 1.753906 -0.015625 1.703125 0 1.640625 0 L 0.546875 0 C 0.410156 0 0.34375 -0.0664062 0.34375 -0.203125 Z M 1.890625 -7.640625 L 1.890625 -6.8125 C 1.890625 -6.707031 1.863281 -6.632812 1.8125 -6.59375 C 1.757812 -6.550781 1.679688 -6.53125 1.578125 -6.53125 L 0.625 -6.53125 C 0.519531 -6.53125 0.4375 -6.546875 0.375 -6.578125 C 0.3125 -6.617188 0.28125 -6.695312 0.28125 -6.8125 L 0.28125 -7.640625 C 0.28125 -7.734375 0.304688 -7.804688 0.359375 -7.859375 C 0.410156 -7.921875 0.5 -7.953125 0.625 -7.953125 L 1.578125 -7.953125 C 1.691406 -7.953125 1.769531 -7.925781 1.8125 -7.875 C 1.863281 -7.820312 1.890625 -7.742188 1.890625 -7.640625 Z M 1.890625 -7.640625 "/></g></g></g><g fill="#5e17eb" fill-opacity="1"><g transform="translate(10.418808, 24.548933)"><g><path d="M 2.8125 -1.765625 L 2.8125 -2.671875 L 2.53125 -2.671875 C 2.3125 -2.671875 2.140625 -2.632812 2.015625 -2.5625 C 1.898438 -2.5 1.816406 -2.410156 1.765625 -2.296875 C 1.722656 -2.179688 1.703125 -2.0625 1.703125 -1.9375 L 1.703125 -1.84375 C 1.703125 -1.695312 1.726562 -1.570312 1.78125 -1.46875 C 1.84375 -1.375 1.921875 -1.304688 2.015625 -1.265625 C 2.109375 -1.222656 2.195312 -1.203125 2.28125 -1.203125 C 2.40625 -1.203125 2.523438 -1.242188 2.640625 -1.328125 C 2.753906 -1.421875 2.8125 -1.566406 2.8125 -1.765625 Z M 2.109375 -3.734375 L 2.8125 -3.734375 L 2.8125 -4.15625 C 2.8125 -4.28125 2.785156 -4.40625 2.734375 -4.53125 C 2.679688 -4.65625 2.597656 -4.757812 2.484375 -4.84375 C 2.378906 -4.925781 2.238281 -4.96875 2.0625 -4.96875 C 1.820312 -4.96875 1.617188 -4.929688 1.453125 -4.859375 C 1.285156 -4.796875 1.144531 -4.726562 1.03125 -4.65625 C 1 -4.632812 0.96875 -4.617188 0.9375 -4.609375 C 0.914062 -4.597656 0.890625 -4.59375 0.859375 -4.59375 C 0.816406 -4.59375 0.78125 -4.617188 0.75 -4.671875 L 0.453125 -5.328125 C 0.421875 -5.378906 0.40625 -5.429688 0.40625 -5.484375 C 0.414062 -5.546875 0.472656 -5.609375 0.578125 -5.671875 C 0.722656 -5.765625 0.875 -5.847656 1.03125 -5.921875 C 1.195312 -6.003906 1.378906 -6.066406 1.578125 -6.109375 C 1.785156 -6.160156 2.023438 -6.1875 2.296875 -6.1875 C 2.546875 -6.1875 2.789062 -6.144531 3.03125 -6.0625 C 3.269531 -5.988281 3.484375 -5.867188 3.671875 -5.703125 C 3.859375 -5.546875 4.007812 -5.347656 4.125 -5.109375 C 4.238281 -4.878906 4.296875 -4.609375 4.296875 -4.296875 L 4.296875 -1.703125 C 4.296875 -1.410156 4.242188 -1.160156 4.140625 -0.953125 C 4.046875 -0.742188 3.921875 -0.566406 3.765625 -0.421875 C 3.609375 -0.285156 3.4375 -0.175781 3.25 -0.09375 C 3.070312 -0.0195312 2.894531 0.03125 2.71875 0.0625 C 2.539062 0.09375 2.390625 0.109375 2.265625 0.109375 C 2.023438 0.109375 1.785156 0.0703125 1.546875 0 C 1.304688 -0.0703125 1.082031 -0.179688 0.875 -0.328125 C 0.675781 -0.484375 0.515625 -0.6875 0.390625 -0.9375 C 0.265625 -1.1875 0.203125 -1.484375 0.203125 -1.828125 L 0.203125 -1.953125 C 0.203125 -2.265625 0.253906 -2.535156 0.359375 -2.765625 C 0.460938 -2.992188 0.601562 -3.175781 0.78125 -3.3125 C 0.957031 -3.457031 1.160156 -3.5625 1.390625 -3.625 C 1.617188 -3.695312 1.859375 -3.734375 2.109375 -3.734375 Z M 2.109375 -3.734375 "/></g></g></g><g fill="#5e17eb" fill-opacity="1"><g transform="translate(14.735525, 24.548933)"><g><path d="M 2.59375 0 L 2.21875 0 C 1.988281 0 1.773438 -0.0234375 1.578125 -0.078125 C 1.378906 -0.140625 1.203125 -0.234375 1.046875 -0.359375 C 0.898438 -0.492188 0.78125 -0.675781 0.6875 -0.90625 C 0.601562 -1.132812 0.5625 -1.425781 0.5625 -1.78125 L 0.5625 -4.75 L 0.21875 -4.75 C 0.1875 -4.75 0.148438 -4.769531 0.109375 -4.8125 C 0.0664062 -4.851562 0.046875 -4.90625 0.046875 -4.96875 L 0.046875 -5.859375 C 0.046875 -5.929688 0.0664062 -5.984375 0.109375 -6.015625 C 0.148438 -6.054688 0.1875 -6.078125 0.21875 -6.078125 L 0.5625 -6.078125 L 0.5625 -7 C 0.5625 -7.0625 0.570312 -7.109375 0.59375 -7.140625 C 0.625 -7.179688 0.671875 -7.210938 0.734375 -7.234375 L 1.84375 -7.5625 C 1.851562 -7.5625 1.875 -7.5625 1.90625 -7.5625 C 2.019531 -7.5625 2.078125 -7.492188 2.078125 -7.359375 L 2.078125 -6.078125 L 2.671875 -6.078125 C 2.785156 -6.078125 2.84375 -6.003906 2.84375 -5.859375 L 2.84375 -4.96875 C 2.84375 -4.90625 2.828125 -4.851562 2.796875 -4.8125 C 2.765625 -4.769531 2.71875 -4.75 2.65625 -4.75 L 2.078125 -4.75 L 2.078125 -1.859375 C 2.078125 -1.691406 2.113281 -1.5625 2.1875 -1.46875 C 2.269531 -1.382812 2.421875 -1.34375 2.640625 -1.34375 L 2.75 -1.34375 C 2.832031 -1.34375 2.878906 -1.316406 2.890625 -1.265625 C 2.910156 -1.210938 2.921875 -1.164062 2.921875 -1.125 L 2.921875 -0.1875 C 2.921875 -0.144531 2.90625 -0.101562 2.875 -0.0625 C 2.84375 -0.0195312 2.75 0 2.59375 0 Z M 2.59375 0 "/></g></g></g><g fill="#5e17eb" fill-opacity="1"><g transform="translate(17.60945, 24.548933)"><g><path d="M 0.34375 -0.203125 L 0.34375 -5.890625 C 0.34375 -5.953125 0.363281 -6 0.40625 -6.03125 C 0.445312 -6.0625 0.492188 -6.078125 0.546875 -6.078125 L 1.640625 -6.078125 C 1.703125 -6.078125 1.753906 -6.054688 1.796875 -6.015625 C 1.835938 -5.984375 1.859375 -5.941406 1.859375 -5.890625 L 1.859375 -0.203125 C 1.859375 -0.128906 1.835938 -0.078125 1.796875 -0.046875 C 1.753906 -0.015625 1.703125 0 1.640625 0 L 0.546875 0 C 0.410156 0 0.34375 -0.0664062 0.34375 -0.203125 Z M 1.890625 -7.640625 L 1.890625 -6.8125 C 1.890625 -6.707031 1.863281 -6.632812 1.8125 -6.59375 C 1.757812 -6.550781 1.679688 -6.53125 1.578125 -6.53125 L 0.625 -6.53125 C 0.519531 -6.53125 0.4375 -6.546875 0.375 -6.578125 C 0.3125 -6.617188 0.28125 -6.695312 0.28125 -6.8125 L 0.28125 -7.640625 C 0.28125 -7.734375 0.304688 -7.804688 0.359375 -7.859375 C 0.410156 -7.921875 0.5 -7.953125 0.625 -7.953125 L 1.578125 -7.953125 C 1.691406 -7.953125 1.769531 -7.925781 1.8125 -7.875 C 1.863281 -7.820312 1.890625 -7.742188 1.890625 -7.640625 Z M 1.890625 -7.640625 "/></g></g></g><g fill="#5e17eb" fill-opacity="1"><g transform="translate(19.580885, 24.548933)"><g><path d="M 2.296875 -2.375 L 2.34375 -1.953125 L 2.390625 -2.375 L 3.09375 -5.890625 C 3.101562 -5.960938 3.128906 -6.007812 3.171875 -6.03125 C 3.210938 -6.0625 3.265625 -6.078125 3.328125 -6.078125 L 4.453125 -6.078125 C 4.546875 -6.078125 4.601562 -6.046875 4.625 -5.984375 C 4.644531 -5.921875 4.640625 -5.84375 4.609375 -5.75 L 3.15625 -0.171875 C 3.113281 -0.0546875 3.039062 0 2.9375 0 L 1.765625 0 C 1.640625 0 1.566406 -0.0625 1.546875 -0.1875 L 0.09375 -5.75 C 0.0390625 -5.96875 0.09375 -6.078125 0.25 -6.078125 L 1.390625 -6.078125 C 1.515625 -6.078125 1.585938 -6.007812 1.609375 -5.875 Z M 2.296875 -2.375 "/></g></g></g><g fill="#5e17eb" fill-opacity="1"><g transform="translate(24.040101, 24.548933)"><g><path d="M 4.3125 -4.390625 L 4.3125 -1.6875 C 4.3125 -1.425781 4.257812 -1.179688 4.15625 -0.953125 C 4.050781 -0.734375 3.90625 -0.539062 3.71875 -0.375 C 3.53125 -0.21875 3.3125 -0.0976562 3.0625 -0.015625 C 2.820312 0.0664062 2.5625 0.109375 2.28125 0.109375 C 2 0.109375 1.734375 0.0664062 1.484375 -0.015625 C 1.242188 -0.0976562 1.03125 -0.21875 0.84375 -0.375 C 0.65625 -0.539062 0.507812 -0.734375 0.40625 -0.953125 C 0.300781 -1.179688 0.25 -1.425781 0.25 -1.6875 L 0.25 -4.390625 C 0.25 -4.640625 0.300781 -4.875 0.40625 -5.09375 C 0.507812 -5.3125 0.648438 -5.5 0.828125 -5.65625 C 1.015625 -5.820312 1.234375 -5.953125 1.484375 -6.046875 C 1.734375 -6.140625 1.992188 -6.1875 2.265625 -6.1875 C 2.546875 -6.1875 2.8125 -6.144531 3.0625 -6.0625 C 3.3125 -5.976562 3.53125 -5.851562 3.71875 -5.6875 C 3.90625 -5.53125 4.050781 -5.34375 4.15625 -5.125 C 4.257812 -4.90625 4.3125 -4.660156 4.3125 -4.390625 Z M 2.28125 -4.875 C 2.125 -4.875 1.992188 -4.816406 1.890625 -4.703125 C 1.796875 -4.597656 1.75 -4.476562 1.75 -4.34375 L 1.75 -1.734375 C 1.75 -1.597656 1.796875 -1.472656 1.890625 -1.359375 C 1.992188 -1.253906 2.125 -1.203125 2.28125 -1.203125 C 2.445312 -1.203125 2.578125 -1.253906 2.671875 -1.359375 C 2.765625 -1.472656 2.8125 -1.597656 2.8125 -1.734375 L 2.8125 -4.34375 C 2.8125 -4.476562 2.765625 -4.597656 2.671875 -4.703125 C 2.578125 -4.816406 2.445312 -4.875 2.28125 -4.875 Z M 2.28125 -4.875 "/></g></g></g><path fill="#26a9e0" d="M 21.894531 15.113281 C 21.894531 15.113281 21.730469 14.230469 21.527344 13.933594 C 20.78125 12.828125 19.503906 11.265625 20.960938 9.25 C 22.082031 7.699219 25.09375 8.210938 26.132812 9.878906 C 26.804688 10.960938 26.695312 12.300781 25.765625 13.246094 C 25.292969 13.730469 24.167969 14.59375 24.082031 15.375 L 21.894531 15.113281 " fill-opacity="1" fill-rule="evenodd"/><g clip-path="url(#94031f119c)"><path fill="#5e17eb" d="M 21.164062 14.976562 C 21.132812 14.980469 21.105469 14.996094 21.085938 15.015625 C 21.054688 15.042969 21.035156 15.085938 21.035156 15.125 C 21.039062 15.3125 20.984375 15.398438 20.96875 15.550781 C 20.9375 15.847656 21.054688 16.128906 21.265625 16.328125 C 21.257812 16.367188 21.242188 16.402344 21.238281 16.449219 C 21.222656 16.589844 21.273438 16.726562 21.375 16.84375 C 21.398438 16.871094 21.425781 16.898438 21.457031 16.925781 C 21.449219 16.957031 21.445312 16.988281 21.441406 17.023438 C 21.40625 17.347656 21.679688 17.65625 22.0625 17.699219 C 22.417969 17.738281 22.871094 17.785156 23.222656 17.824219 C 23.605469 17.867188 23.90625 17.632812 23.976562 17.316406 C 23.984375 17.277344 23.988281 17.234375 23.988281 17.191406 C 24.148438 17.097656 24.257812 16.960938 24.296875 16.804688 C 24.308594 16.761719 24.308594 16.722656 24.304688 16.679688 C 24.304688 16.667969 24.300781 16.660156 24.300781 16.648438 C 24.53125 16.5 24.695312 16.261719 24.753906 15.980469 C 24.769531 15.914062 24.769531 15.851562 24.765625 15.785156 C 24.761719 15.714844 24.753906 15.636719 24.773438 15.527344 C 24.78125 15.488281 24.773438 15.445312 24.746094 15.410156 C 24.730469 15.386719 24.703125 15.371094 24.675781 15.359375 C 24.707031 15.265625 24.753906 15.148438 24.828125 15.007812 C 25.003906 14.671875 25.359375 14.445312 25.742188 14.132812 C 26.359375 13.628906 27.054688 12.925781 27.292969 11.351562 C 27.613281 9.199219 25.988281 7.09375 23.835938 6.855469 C 21.6875 6.621094 19.765625 8.332031 19.492188 10.488281 C 19.3125 11.921875 19.839844 12.789062 20.351562 13.472656 C 20.667969 13.890625 20.984375 14.230469 21.082031 14.597656 C 21.125 14.753906 21.148438 14.878906 21.164062 14.976562 Z M 21.96875 17.136719 C 21.886719 17.125 21.808594 17.109375 21.738281 17.082031 C 21.738281 17.246094 21.898438 17.378906 22.097656 17.398438 L 23.257812 17.527344 C 23.453125 17.546875 23.613281 17.445312 23.671875 17.292969 C 23.628906 17.300781 23.582031 17.300781 23.539062 17.300781 L 23.515625 17.300781 C 23.511719 17.300781 23.503906 17.300781 23.5 17.300781 L 23.449219 17.300781 L 23.4375 17.296875 L 23.417969 17.296875 L 21.988281 17.140625 L 21.980469 17.136719 Z M 21.535156 16.503906 C 21.539062 16.574219 21.582031 16.636719 21.644531 16.691406 C 21.664062 16.707031 21.679688 16.71875 21.699219 16.734375 C 21.703125 16.734375 21.703125 16.734375 21.703125 16.734375 C 21.789062 16.789062 21.894531 16.824219 22.011719 16.839844 L 22.019531 16.839844 C 22.453125 16.886719 23.019531 16.949219 23.453125 16.996094 L 23.457031 17 L 23.460938 17 C 23.582031 17.011719 23.6875 16.996094 23.777344 16.960938 C 23.78125 16.957031 23.789062 16.953125 23.796875 16.953125 C 23.890625 16.914062 23.957031 16.851562 23.992188 16.777344 C 23.894531 16.796875 23.792969 16.804688 23.6875 16.792969 L 23.664062 16.792969 C 23.117188 16.730469 22.40625 16.652344 21.859375 16.59375 L 21.84375 16.59375 L 21.832031 16.589844 L 21.808594 16.589844 C 21.714844 16.574219 21.621094 16.542969 21.535156 16.503906 Z M 24.460938 15.636719 L 21.324219 15.292969 C 21.308594 15.390625 21.28125 15.472656 21.269531 15.582031 C 21.242188 15.804688 21.34375 16.011719 21.515625 16.144531 C 21.519531 16.148438 21.519531 16.148438 21.519531 16.148438 C 21.546875 16.167969 21.570312 16.183594 21.597656 16.199219 L 21.605469 16.207031 C 21.679688 16.246094 21.757812 16.273438 21.84375 16.289062 L 21.855469 16.292969 C 21.863281 16.292969 21.867188 16.292969 21.871094 16.292969 L 21.882812 16.296875 L 21.890625 16.296875 L 23.695312 16.492188 L 23.707031 16.496094 C 24.085938 16.53125 24.386719 16.269531 24.460938 15.917969 C 24.472656 15.863281 24.464844 15.8125 24.464844 15.757812 C 24.460938 15.71875 24.460938 15.679688 24.460938 15.636719 Z M 21.453125 14.878906 L 24.410156 15.203125 C 24.445312 15.109375 24.492188 15 24.5625 14.867188 C 24.753906 14.5 25.132812 14.242188 25.550781 13.902344 C 26.128906 13.429688 26.773438 12.773438 26.996094 11.308594 C 27.292969 9.316406 25.792969 7.371094 23.804688 7.15625 C 21.816406 6.9375 20.042969 8.53125 19.789062 10.527344 C 19.621094 11.855469 20.117188 12.660156 20.59375 13.292969 C 20.9375 13.746094 21.261719 14.121094 21.371094 14.519531 C 21.410156 14.664062 21.433594 14.78125 21.453125 14.878906 " fill-opacity="1" fill-rule="evenodd"/></g><path fill="#5e17eb" d="M 23.441406 12.691406 C 23.3125 12.738281 23.167969 12.746094 23.03125 12.667969 C 23.089844 12.59375 23.140625 12.507812 23.175781 12.40625 C 23.21875 12.285156 23.21875 12.121094 23.164062 11.996094 C 23.097656 11.835938 22.96875 11.726562 22.757812 11.757812 C 22.652344 11.773438 22.558594 11.851562 22.507812 11.984375 C 22.441406 12.152344 22.453125 12.414062 22.589844 12.644531 C 22.574219 12.652344 22.554688 12.664062 22.535156 12.671875 C 22.523438 12.675781 22.511719 12.683594 22.5 12.6875 C 22.476562 12.625 22.453125 12.570312 22.429688 12.519531 C 22.359375 12.378906 22.277344 12.214844 22.171875 12.109375 C 22.078125 12.015625 21.96875 11.960938 21.835938 11.96875 C 21.71875 11.972656 21.621094 12.042969 21.558594 12.152344 C 21.484375 12.285156 21.46875 12.476562 21.539062 12.625 C 21.601562 12.757812 21.742188 12.914062 21.894531 13.003906 C 22.019531 13.074219 22.152344 13.097656 22.269531 13.058594 C 22.277344 13.058594 22.289062 13.054688 22.300781 13.054688 C 22.519531 13.84375 22.65625 15.160156 22.65625 15.160156 C 22.664062 15.242188 22.738281 15.300781 22.820312 15.292969 C 22.902344 15.285156 22.964844 15.210938 22.953125 15.125 C 22.953125 15.125 22.808594 13.800781 22.589844 12.976562 C 22.609375 12.964844 22.632812 12.957031 22.65625 12.945312 C 22.703125 12.925781 22.75 12.902344 22.796875 12.871094 C 23.058594 13.074219 23.363281 13.054688 23.613281 12.945312 C 23.640625 12.972656 23.671875 13 23.707031 13.023438 C 23.742188 13.050781 23.78125 13.074219 23.824219 13.097656 C 23.429688 13.917969 23.085938 15.167969 23.085938 15.167969 C 23.0625 15.246094 23.109375 15.328125 23.191406 15.351562 C 23.269531 15.371094 23.351562 15.324219 23.375 15.246094 C 23.375 15.246094 23.710938 13.988281 24.09375 13.207031 C 24.222656 13.246094 24.324219 13.265625 24.347656 13.269531 C 24.636719 13.316406 24.96875 13.199219 25.058594 12.929688 C 25.160156 12.625 25.078125 12.351562 24.847656 12.265625 C 24.550781 12.160156 24.3125 12.367188 24.15625 12.546875 C 24.089844 12.621094 24.027344 12.71875 23.960938 12.832031 C 23.933594 12.816406 23.90625 12.796875 23.878906 12.78125 L 23.875 12.777344 C 24.015625 12.65625 24.117188 12.507812 24.167969 12.375 C 24.21875 12.242188 24.214844 12.117188 24.167969 12.027344 C 24.132812 11.953125 24.066406 11.894531 23.964844 11.867188 C 23.777344 11.816406 23.640625 11.898438 23.546875 12.035156 C 23.476562 12.136719 23.4375 12.273438 23.421875 12.390625 C 23.402344 12.503906 23.414062 12.601562 23.441406 12.691406 Z M 22.210938 12.765625 C 22.195312 12.726562 22.179688 12.6875 22.160156 12.652344 C 22.113281 12.554688 22.0625 12.445312 21.996094 12.359375 C 21.953125 12.308594 21.910156 12.265625 21.847656 12.265625 C 21.84375 12.269531 21.839844 12.273438 21.832031 12.28125 C 21.820312 12.292969 21.8125 12.308594 21.808594 12.328125 C 21.789062 12.378906 21.785156 12.445312 21.808594 12.496094 C 21.851562 12.582031 21.941406 12.683594 22.042969 12.742188 C 22.085938 12.769531 22.132812 12.789062 22.171875 12.773438 C 22.179688 12.773438 22.195312 12.769531 22.210938 12.765625 Z M 24.242188 12.9375 C 24.320312 12.960938 24.378906 12.96875 24.394531 12.972656 C 24.476562 12.984375 24.570312 12.980469 24.644531 12.949219 C 24.703125 12.929688 24.753906 12.894531 24.773438 12.835938 C 24.800781 12.757812 24.808594 12.679688 24.796875 12.621094 C 24.789062 12.585938 24.773438 12.558594 24.742188 12.550781 C 24.675781 12.523438 24.621094 12.542969 24.570312 12.574219 C 24.496094 12.617188 24.433594 12.6875 24.382812 12.746094 C 24.335938 12.796875 24.289062 12.863281 24.242188 12.9375 Z M 22.824219 12.445312 C 22.851562 12.40625 22.875 12.359375 22.894531 12.308594 C 22.914062 12.25 22.914062 12.171875 22.886719 12.109375 C 22.875 12.078125 22.851562 12.050781 22.808594 12.054688 C 22.804688 12.0625 22.785156 12.09375 22.78125 12.117188 C 22.761719 12.1875 22.765625 12.28125 22.792969 12.371094 C 22.800781 12.398438 22.8125 12.421875 22.824219 12.445312 Z M 23.714844 12.519531 C 23.796875 12.441406 23.855469 12.351562 23.886719 12.269531 C 23.898438 12.242188 23.90625 12.214844 23.90625 12.191406 C 23.90625 12.175781 23.902344 12.160156 23.886719 12.15625 C 23.84375 12.144531 23.816406 12.171875 23.796875 12.203125 C 23.75 12.269531 23.726562 12.359375 23.714844 12.4375 C 23.710938 12.464844 23.710938 12.492188 23.714844 12.519531 " fill-opacity="1" fill-rule="evenodd"/><g clip-path="url(#a768579385)"><path fill="#5e17eb" d="M 23.898438 6.078125 L 23.992188 5.207031 C 24 5.128906 23.941406 5.050781 23.859375 5.042969 C 23.777344 5.035156 23.703125 5.09375 23.695312 5.175781 L 23.597656 6.042969 C 23.589844 6.125 23.652344 6.199219 23.730469 6.207031 C 23.8125 6.21875 23.890625 6.160156 23.898438 6.078125 " fill-opacity="1" fill-rule="evenodd"/></g><g clip-path="url(#e1ff1829ce)"><path fill="#5e17eb" d="M 26 6.890625 L 26.570312 6.246094 C 26.625 6.183594 26.621094 6.085938 26.558594 6.03125 C 26.496094 5.976562 26.402344 5.984375 26.347656 6.046875 L 25.773438 6.691406 C 25.71875 6.753906 25.726562 6.847656 25.789062 6.902344 C 25.847656 6.957031 25.945312 6.953125 26 6.890625 " fill-opacity="1" fill-rule="evenodd"/></g><g clip-path="url(#7270b5fe08)"><path fill="#5e17eb" d="M 27.09375 8.273438 L 27.871094 7.902344 C 27.945312 7.863281 27.980469 7.773438 27.945312 7.699219 C 27.90625 7.625 27.816406 7.59375 27.742188 7.628906 L 26.964844 8.003906 C 26.890625 8.039062 26.859375 8.128906 26.894531 8.203125 C 26.929688 8.277344 27.019531 8.308594 27.09375 8.273438 " fill-opacity="1" fill-rule="evenodd"/></g><g clip-path="url(#1aba8bcb6f)"><path fill="#5e17eb" d="M 21.984375 6.292969 L 21.648438 5.5 C 21.617188 5.421875 21.527344 5.386719 21.453125 5.421875 C 21.375 5.453125 21.339844 5.539062 21.371094 5.617188 L 21.707031 6.410156 C 21.742188 6.488281 21.828125 6.523438 21.90625 6.492188 C 21.980469 6.457031 22.019531 6.371094 21.984375 6.292969 " fill-opacity="1" fill-rule="evenodd"/></g><g clip-path="url(#dacfc21d83)"><path fill="#5e17eb" d="M 20.460938 7.210938 L 19.78125 6.675781 C 19.714844 6.625 19.621094 6.636719 19.570312 6.703125 C 19.519531 6.765625 19.53125 6.859375 19.59375 6.910156 L 20.273438 7.445312 C 20.339844 7.496094 20.433594 7.484375 20.484375 7.417969 C 20.535156 7.355469 20.523438 7.261719 20.460938 7.210938 " fill-opacity="1" fill-rule="evenodd"/></g><g fill="#000000" fill-opacity="1"><g transform="translate(3.949978, 8.527806)"><g><path d="M 1.40625 -1.625 L 1.40625 -2.171875 C 1.40625 -2.234375 1.378906 -2.289062 1.328125 -2.34375 C 1.285156 -2.40625 1.222656 -2.4375 1.140625 -2.4375 C 1.054688 -2.4375 0.988281 -2.40625 0.9375 -2.34375 C 0.894531 -2.289062 0.875 -2.234375 0.875 -2.171875 L 0.875 -1.625 C 0.875 -1.5625 0.898438 -1.503906 0.953125 -1.453125 C 1.003906 -1.398438 1.066406 -1.375 1.140625 -1.375 C 1.222656 -1.375 1.285156 -1.398438 1.328125 -1.453125 C 1.378906 -1.503906 1.40625 -1.5625 1.40625 -1.625 Z M 1.5 -3.046875 L 2.3125 -3.046875 C 2.382812 -3.046875 2.421875 -3.015625 2.421875 -2.953125 L 2.421875 -2.5625 C 2.421875 -2.53125 2.410156 -2.503906 2.390625 -2.484375 C 2.378906 -2.472656 2.359375 -2.46875 2.328125 -2.46875 L 2.09375 -2.46875 C 2.113281 -2.414062 2.128906 -2.351562 2.140625 -2.28125 C 2.148438 -2.21875 2.15625 -2.15625 2.15625 -2.09375 L 2.15625 -1.734375 C 2.15625 -1.515625 2.109375 -1.328125 2.015625 -1.171875 C 1.929688 -1.023438 1.8125 -0.910156 1.65625 -0.828125 C 1.5 -0.742188 1.328125 -0.703125 1.140625 -0.703125 C 1.085938 -0.703125 1.039062 -0.703125 1 -0.703125 C 0.957031 -0.710938 0.910156 -0.722656 0.859375 -0.734375 C 0.847656 -0.710938 0.835938 -0.6875 0.828125 -0.65625 C 0.816406 -0.625 0.8125 -0.585938 0.8125 -0.546875 L 0.8125 -0.53125 C 0.8125 -0.476562 0.832031 -0.429688 0.875 -0.390625 C 0.914062 -0.359375 0.96875 -0.34375 1.03125 -0.34375 L 1.53125 -0.34375 C 1.632812 -0.34375 1.734375 -0.332031 1.828125 -0.3125 C 1.921875 -0.289062 2 -0.253906 2.0625 -0.203125 C 2.132812 -0.160156 2.191406 -0.09375 2.234375 0 C 2.273438 0.09375 2.296875 0.210938 2.296875 0.359375 L 2.296875 0.875 C 2.296875 0.925781 2.269531 0.953125 2.21875 0.953125 L 1.609375 0.953125 C 1.585938 0.953125 1.570312 0.941406 1.5625 0.921875 C 1.550781 0.910156 1.546875 0.894531 1.546875 0.875 L 1.546875 0.5625 C 1.546875 0.476562 1.523438 0.414062 1.484375 0.375 C 1.441406 0.332031 1.378906 0.3125 1.296875 0.3125 L 0.734375 0.3125 C 0.617188 0.3125 0.515625 0.28125 0.421875 0.21875 C 0.328125 0.15625 0.253906 0.078125 0.203125 -0.015625 C 0.148438 -0.117188 0.125 -0.226562 0.125 -0.34375 L 0.125 -0.4375 C 0.125 -0.5625 0.144531 -0.675781 0.1875 -0.78125 C 0.226562 -0.882812 0.28125 -0.972656 0.34375 -1.046875 C 0.269531 -1.128906 0.210938 -1.226562 0.171875 -1.34375 C 0.140625 -1.457031 0.125 -1.582031 0.125 -1.71875 L 0.125 -2.09375 C 0.125 -2.25 0.148438 -2.382812 0.203125 -2.5 C 0.253906 -2.625 0.328125 -2.726562 0.421875 -2.8125 C 0.515625 -2.90625 0.617188 -2.972656 0.734375 -3.015625 C 0.859375 -3.066406 0.992188 -3.09375 1.140625 -3.09375 C 1.203125 -3.09375 1.265625 -3.085938 1.328125 -3.078125 C 1.390625 -3.066406 1.445312 -3.054688 1.5 -3.046875 Z M 1.5 -3.046875 "/></g></g></g><g fill="#000000" fill-opacity="1"><g transform="translate(6.342559, 8.527806)"><g><path d="M 1.59375 -2.953125 L 1.59375 -2.53125 C 1.59375 -2.488281 1.578125 -2.457031 1.546875 -2.4375 C 1.515625 -2.425781 1.484375 -2.421875 1.453125 -2.421875 L 1.296875 -2.421875 C 1.179688 -2.421875 1.082031 -2.378906 1 -2.296875 C 0.925781 -2.210938 0.890625 -2.097656 0.890625 -1.953125 L 0.890625 -0.140625 C 0.890625 -0.0859375 0.875 -0.0507812 0.84375 -0.03125 C 0.8125 -0.0078125 0.785156 0 0.765625 0 L 0.234375 0 C 0.203125 0 0.175781 -0.00390625 0.15625 -0.015625 C 0.144531 -0.0351562 0.140625 -0.0664062 0.140625 -0.109375 L 0.140625 -2.0625 C 0.140625 -2.25 0.171875 -2.40625 0.234375 -2.53125 C 0.296875 -2.664062 0.378906 -2.773438 0.484375 -2.859375 C 0.585938 -2.941406 0.695312 -3 0.8125 -3.03125 C 0.9375 -3.070312 1.0625 -3.09375 1.1875 -3.09375 C 1.25 -3.09375 1.304688 -3.09375 1.359375 -3.09375 C 1.410156 -3.09375 1.457031 -3.085938 1.5 -3.078125 C 1.5625 -3.054688 1.59375 -3.015625 1.59375 -2.953125 Z M 1.59375 -2.953125 "/></g></g></g><g fill="#000000" fill-opacity="1"><g transform="translate(7.844635, 8.527806)"><g><path d="M 1.40625 -0.875 L 1.40625 -1.328125 L 1.265625 -1.328125 C 1.160156 -1.328125 1.078125 -1.3125 1.015625 -1.28125 C 0.953125 -1.25 0.910156 -1.203125 0.890625 -1.140625 C 0.867188 -1.085938 0.859375 -1.03125 0.859375 -0.96875 L 0.859375 -0.921875 C 0.859375 -0.847656 0.867188 -0.785156 0.890625 -0.734375 C 0.921875 -0.691406 0.957031 -0.660156 1 -0.640625 C 1.050781 -0.617188 1.097656 -0.609375 1.140625 -0.609375 C 1.203125 -0.609375 1.257812 -0.628906 1.3125 -0.671875 C 1.375 -0.710938 1.40625 -0.78125 1.40625 -0.875 Z M 1.046875 -1.875 L 1.40625 -1.859375 L 1.40625 -2.078125 C 1.40625 -2.140625 1.390625 -2.203125 1.359375 -2.265625 C 1.335938 -2.328125 1.296875 -2.378906 1.234375 -2.421875 C 1.179688 -2.460938 1.113281 -2.484375 1.03125 -2.484375 C 0.90625 -2.484375 0.800781 -2.46875 0.71875 -2.4375 C 0.632812 -2.40625 0.566406 -2.367188 0.515625 -2.328125 C 0.503906 -2.316406 0.488281 -2.304688 0.46875 -2.296875 C 0.457031 -2.296875 0.445312 -2.296875 0.4375 -2.296875 C 0.40625 -2.296875 0.382812 -2.304688 0.375 -2.328125 L 0.21875 -2.65625 C 0.207031 -2.6875 0.203125 -2.71875 0.203125 -2.75 C 0.210938 -2.78125 0.238281 -2.8125 0.28125 -2.84375 C 0.351562 -2.882812 0.429688 -2.921875 0.515625 -2.953125 C 0.597656 -2.992188 0.6875 -3.023438 0.78125 -3.046875 C 0.882812 -3.078125 1.007812 -3.09375 1.15625 -3.09375 C 1.269531 -3.09375 1.382812 -3.070312 1.5 -3.03125 C 1.625 -2.988281 1.734375 -2.925781 1.828125 -2.84375 C 1.929688 -2.769531 2.007812 -2.671875 2.0625 -2.546875 C 2.125 -2.429688 2.15625 -2.300781 2.15625 -2.15625 L 2.15625 -0.859375 C 2.15625 -0.703125 2.128906 -0.570312 2.078125 -0.46875 C 2.023438 -0.363281 1.957031 -0.273438 1.875 -0.203125 C 1.800781 -0.140625 1.71875 -0.0859375 1.625 -0.046875 C 1.53125 -0.00390625 1.4375 0.0195312 1.34375 0.03125 C 1.257812 0.0507812 1.1875 0.0625 1.125 0.0625 C 1.007812 0.0625 0.890625 0.0390625 0.765625 0 C 0.648438 -0.03125 0.539062 -0.0820312 0.4375 -0.15625 C 0.332031 -0.238281 0.25 -0.34375 0.1875 -0.46875 C 0.125 -0.59375 0.09375 -0.738281 0.09375 -0.90625 L 0.09375 -0.96875 C 0.09375 -1.132812 0.117188 -1.269531 0.171875 -1.375 C 0.222656 -1.488281 0.289062 -1.582031 0.375 -1.65625 C 0.46875 -1.726562 0.570312 -1.78125 0.6875 -1.8125 C 0.800781 -1.851562 0.921875 -1.875 1.046875 -1.875 Z M 1.28125 -4.078125 L 1.734375 -4.078125 C 1.765625 -4.078125 1.785156 -4.0625 1.796875 -4.03125 C 1.816406 -4 1.816406 -3.960938 1.796875 -3.921875 L 1.515625 -3.4375 C 1.492188 -3.394531 1.472656 -3.367188 1.453125 -3.359375 C 1.429688 -3.347656 1.40625 -3.34375 1.375 -3.34375 L 1.015625 -3.34375 C 0.984375 -3.34375 0.957031 -3.351562 0.9375 -3.375 C 0.925781 -3.40625 0.929688 -3.441406 0.953125 -3.484375 L 1.15625 -3.96875 C 1.175781 -4.007812 1.191406 -4.035156 1.203125 -4.046875 C 1.222656 -4.066406 1.25 -4.078125 1.28125 -4.078125 Z M 1.28125 -4.078125 "/></g></g></g><g fill="#000000" fill-opacity="1"><g transform="translate(10.002717, 8.527806)"><g><path d="M 1.0625 -3.046875 L 1.421875 -3.046875 C 1.441406 -3.046875 1.460938 -3.035156 1.484375 -3.015625 C 1.503906 -2.992188 1.515625 -2.972656 1.515625 -2.953125 L 1.515625 -2.46875 C 1.515625 -2.4375 1.503906 -2.410156 1.484375 -2.390625 C 1.460938 -2.378906 1.441406 -2.375 1.421875 -2.375 L 1.0625 -2.375 L 1.0625 -0.09375 C 1.0625 -0.03125 1.035156 0 0.984375 0 L 0.40625 0 C 0.351562 0 0.328125 -0.03125 0.328125 -0.09375 L 0.328125 -2.375 L 0.109375 -2.375 C 0.0859375 -2.375 0.0625 -2.378906 0.03125 -2.390625 C 0.0078125 -2.410156 0 -2.4375 0 -2.46875 L 0 -2.953125 C 0 -2.984375 0.0078125 -3.003906 0.03125 -3.015625 C 0.0625 -3.035156 0.0859375 -3.046875 0.109375 -3.046875 L 0.328125 -3.046875 L 0.328125 -3.25 C 0.328125 -3.425781 0.347656 -3.566406 0.390625 -3.671875 C 0.441406 -3.785156 0.503906 -3.875 0.578125 -3.9375 C 0.660156 -4 0.753906 -4.039062 0.859375 -4.0625 C 0.972656 -4.09375 1.097656 -4.109375 1.234375 -4.109375 C 1.265625 -4.109375 1.289062 -4.109375 1.3125 -4.109375 C 1.34375 -4.109375 1.367188 -4.109375 1.390625 -4.109375 C 1.441406 -4.097656 1.472656 -4.082031 1.484375 -4.0625 C 1.503906 -4.050781 1.515625 -4.023438 1.515625 -3.984375 L 1.515625 -3.59375 C 1.515625 -3.550781 1.503906 -3.519531 1.484375 -3.5 C 1.460938 -3.488281 1.429688 -3.484375 1.390625 -3.484375 C 1.316406 -3.484375 1.253906 -3.472656 1.203125 -3.453125 C 1.160156 -3.441406 1.125 -3.414062 1.09375 -3.375 C 1.070312 -3.332031 1.0625 -3.265625 1.0625 -3.171875 Z M 1.0625 -3.046875 "/></g></g></g><g fill="#000000" fill-opacity="1"><g transform="translate(11.406838, 8.527806)"><g><path d="M 0.171875 -0.09375 L 0.171875 -2.953125 C 0.171875 -2.972656 0.179688 -2.992188 0.203125 -3.015625 C 0.222656 -3.035156 0.25 -3.046875 0.28125 -3.046875 L 0.8125 -3.046875 C 0.84375 -3.046875 0.867188 -3.035156 0.890625 -3.015625 C 0.921875 -2.992188 0.9375 -2.972656 0.9375 -2.953125 L 0.9375 -0.09375 C 0.9375 -0.0625 0.925781 -0.0351562 0.90625 -0.015625 C 0.882812 -0.00390625 0.851562 0 0.8125 0 L 0.28125 0 C 0.207031 0 0.171875 -0.03125 0.171875 -0.09375 Z M 0.953125 -3.8125 L 0.953125 -3.40625 C 0.953125 -3.351562 0.9375 -3.316406 0.90625 -3.296875 C 0.875 -3.273438 0.835938 -3.265625 0.796875 -3.265625 L 0.3125 -3.265625 C 0.257812 -3.265625 0.21875 -3.273438 0.1875 -3.296875 C 0.15625 -3.316406 0.140625 -3.351562 0.140625 -3.40625 L 0.140625 -3.828125 C 0.140625 -3.867188 0.148438 -3.90625 0.171875 -3.9375 C 0.203125 -3.96875 0.25 -3.984375 0.3125 -3.984375 L 0.796875 -3.984375 C 0.847656 -3.984375 0.882812 -3.96875 0.90625 -3.9375 C 0.9375 -3.90625 0.953125 -3.863281 0.953125 -3.8125 Z M 0.953125 -3.8125 "/></g></g></g><g fill="#000000" fill-opacity="1"><g transform="translate(12.392421, 8.527806)"><g><path d="M 1.5 -1.125 L 2.03125 -1.125 C 2.0625 -1.125 2.082031 -1.113281 2.09375 -1.09375 C 2.101562 -1.082031 2.109375 -1.0625 2.109375 -1.03125 L 2.109375 -0.84375 C 2.109375 -0.71875 2.082031 -0.597656 2.03125 -0.484375 C 1.988281 -0.378906 1.921875 -0.285156 1.828125 -0.203125 C 1.742188 -0.117188 1.640625 -0.0507812 1.515625 0 C 1.398438 0.0390625 1.273438 0.0625 1.140625 0.0625 C 0.992188 0.0625 0.859375 0.0390625 0.734375 0 C 0.617188 -0.0507812 0.515625 -0.113281 0.421875 -0.1875 C 0.328125 -0.269531 0.253906 -0.363281 0.203125 -0.46875 C 0.148438 -0.582031 0.125 -0.707031 0.125 -0.84375 L 0.125 -2.203125 C 0.125 -2.328125 0.148438 -2.441406 0.203125 -2.546875 C 0.253906 -2.648438 0.328125 -2.742188 0.421875 -2.828125 C 0.515625 -2.910156 0.617188 -2.972656 0.734375 -3.015625 C 0.859375 -3.066406 0.992188 -3.09375 1.140625 -3.09375 C 1.273438 -3.09375 1.398438 -3.066406 1.515625 -3.015625 C 1.640625 -2.972656 1.742188 -2.910156 1.828125 -2.828125 C 1.921875 -2.742188 1.988281 -2.648438 2.03125 -2.546875 C 2.082031 -2.441406 2.109375 -2.328125 2.109375 -2.203125 L 2.109375 -1.96875 C 2.109375 -1.925781 2.101562 -1.894531 2.09375 -1.875 C 2.082031 -1.863281 2.0625 -1.859375 2.03125 -1.859375 L 1.53125 -1.859375 C 1.488281 -1.859375 1.457031 -1.863281 1.4375 -1.875 C 1.425781 -1.894531 1.421875 -1.925781 1.421875 -1.96875 L 1.421875 -2.171875 C 1.421875 -2.234375 1.394531 -2.289062 1.34375 -2.34375 C 1.300781 -2.40625 1.238281 -2.4375 1.15625 -2.4375 C 1.070312 -2.4375 1.003906 -2.40625 0.953125 -2.34375 C 0.898438 -2.289062 0.875 -2.234375 0.875 -2.171875 L 0.875 -0.859375 C 0.875 -0.796875 0.898438 -0.738281 0.953125 -0.6875 C 1.003906 -0.632812 1.070312 -0.609375 1.15625 -0.609375 C 1.238281 -0.609375 1.300781 -0.632812 1.34375 -0.6875 C 1.394531 -0.738281 1.421875 -0.800781 1.421875 -0.875 L 1.421875 -1.015625 C 1.421875 -1.054688 1.425781 -1.082031 1.4375 -1.09375 C 1.445312 -1.113281 1.46875 -1.125 1.5 -1.125 Z M 1.5 -1.125 "/></g></g></g><g fill="#000000" fill-opacity="1"><g transform="translate(14.479262, 8.527806)"><g><path d="M 1.40625 -0.875 L 1.40625 -1.328125 L 1.265625 -1.328125 C 1.160156 -1.328125 1.078125 -1.3125 1.015625 -1.28125 C 0.953125 -1.25 0.910156 -1.203125 0.890625 -1.140625 C 0.867188 -1.085938 0.859375 -1.03125 0.859375 -0.96875 L 0.859375 -0.921875 C 0.859375 -0.847656 0.867188 -0.785156 0.890625 -0.734375 C 0.921875 -0.691406 0.957031 -0.660156 1 -0.640625 C 1.050781 -0.617188 1.097656 -0.609375 1.140625 -0.609375 C 1.203125 -0.609375 1.257812 -0.628906 1.3125 -0.671875 C 1.375 -0.710938 1.40625 -0.78125 1.40625 -0.875 Z M 1.046875 -1.875 L 1.40625 -1.859375 L 1.40625 -2.078125 C 1.40625 -2.140625 1.390625 -2.203125 1.359375 -2.265625 C 1.335938 -2.328125 1.296875 -2.378906 1.234375 -2.421875 C 1.179688 -2.460938 1.113281 -2.484375 1.03125 -2.484375 C 0.90625 -2.484375 0.800781 -2.46875 0.71875 -2.4375 C 0.632812 -2.40625 0.566406 -2.367188 0.515625 -2.328125 C 0.503906 -2.316406 0.488281 -2.304688 0.46875 -2.296875 C 0.457031 -2.296875 0.445312 -2.296875 0.4375 -2.296875 C 0.40625 -2.296875 0.382812 -2.304688 0.375 -2.328125 L 0.21875 -2.65625 C 0.207031 -2.6875 0.203125 -2.71875 0.203125 -2.75 C 0.210938 -2.78125 0.238281 -2.8125 0.28125 -2.84375 C 0.351562 -2.882812 0.429688 -2.921875 0.515625 -2.953125 C 0.597656 -2.992188 0.6875 -3.023438 0.78125 -3.046875 C 0.882812 -3.078125 1.007812 -3.09375 1.15625 -3.09375 C 1.269531 -3.09375 1.382812 -3.070312 1.5 -3.03125 C 1.625 -2.988281 1.734375 -2.925781 1.828125 -2.84375 C 1.929688 -2.769531 2.007812 -2.671875 2.0625 -2.546875 C 2.125 -2.429688 2.15625 -2.300781 2.15625 -2.15625 L 2.15625 -0.859375 C 2.15625 -0.703125 2.128906 -0.570312 2.078125 -0.46875 C 2.023438 -0.363281 1.957031 -0.273438 1.875 -0.203125 C 1.800781 -0.140625 1.71875 -0.0859375 1.625 -0.046875 C 1.53125 -0.00390625 1.4375 0.0195312 1.34375 0.03125 C 1.257812 0.0507812 1.1875 0.0625 1.125 0.0625 C 1.007812 0.0625 0.890625 0.0390625 0.765625 0 C 0.648438 -0.03125 0.539062 -0.0820312 0.4375 -0.15625 C 0.332031 -0.238281 0.25 -0.34375 0.1875 -0.46875 C 0.125 -0.59375 0.09375 -0.738281 0.09375 -0.90625 L 0.09375 -0.96875 C 0.09375 -1.132812 0.117188 -1.269531 0.171875 -1.375 C 0.222656 -1.488281 0.289062 -1.582031 0.375 -1.65625 C 0.46875 -1.726562 0.570312 -1.78125 0.6875 -1.8125 C 0.800781 -1.851562 0.921875 -1.875 1.046875 -1.875 Z M 1.046875 -1.875 "/></g></g></g></svg>