<svg xmlns="http://www.w3.org/2000/svg" xmlns:xlink="http://www.w3.org/1999/xlink" width="320" zoomAndPan="magnify" viewBox="0 0 240 239.999995" height="320" preserveAspectRatio="xMidYMid meet" version="1.0"><path fill="#5e17eb" d="M 120.0625 0.21875 C 53.511719 0.441406 0.316406 54.558594 1.1875 121.105469 C 1.265625 127.804688 1.90625 134.449219 3.109375 141.039062 C 4.3125 147.628906 6.0625 154.074219 8.355469 160.367188 C 10.648438 166.660156 13.453125 172.71875 16.773438 178.539062 C 20.089844 184.359375 23.875 189.859375 28.121094 195.039062 C 28.792969 195.859375 29.328125 196.761719 29.726562 197.742188 C 30.125 198.722656 30.371094 199.742188 30.464844 200.796875 C 30.554688 201.855469 30.492188 202.898438 30.269531 203.9375 C 30.046875 204.972656 29.675781 205.953125 29.160156 206.878906 L 18.882812 225.292969 C 16.03125 230.398438 20.675781 236.433594 26.339844 234.992188 L 61.148438 226.128906 C 62.359375 225.824219 63.589844 225.730469 64.835938 225.859375 C 66.082031 225.988281 67.269531 226.324219 68.394531 226.875 C 76.089844 230.613281 84.097656 233.488281 92.417969 235.496094 C 100.734375 237.503906 109.171875 238.597656 117.726562 238.78125 C 184.636719 240.292969 239.5625 186.828125 239.769531 119.894531 C 239.976562 53.699219 186.265625 -0.00390625 120.0625 0.21875 Z M 120.472656 224.113281 C 118.761719 224.113281 117.050781 224.070312 115.34375 223.988281 C 113.632812 223.902344 111.925781 223.777344 110.222656 223.609375 C 108.519531 223.441406 106.820312 223.230469 105.125 222.980469 C 103.433594 222.730469 101.746094 222.4375 100.070312 222.101562 C 98.390625 221.769531 96.71875 221.394531 95.058594 220.976562 C 93.398438 220.5625 91.75 220.105469 90.113281 219.609375 C 88.472656 219.113281 86.847656 218.574219 85.238281 218 C 83.625 217.421875 82.027344 216.804688 80.445312 216.152344 C 78.867188 215.496094 77.300781 214.800781 75.753906 214.070312 C 74.207031 213.339844 72.675781 212.570312 71.167969 211.761719 C 69.65625 210.957031 68.167969 210.113281 66.699219 209.230469 C 65.234375 208.351562 63.785156 207.4375 62.363281 206.484375 C 60.941406 205.535156 59.539062 204.550781 58.167969 203.527344 C 56.792969 202.507812 55.441406 201.457031 54.117188 200.371094 C 52.796875 199.285156 51.5 198.167969 50.230469 197.015625 C 48.964844 195.867188 47.722656 194.6875 46.511719 193.476562 C 45.300781 192.265625 44.121094 191.027344 42.972656 189.757812 C 41.824219 188.492188 40.707031 187.195312 39.621094 185.871094 C 38.535156 184.546875 37.480469 183.199219 36.460938 181.824219 C 35.441406 180.449219 34.457031 179.050781 33.503906 177.628906 C 32.554688 176.203125 31.636719 174.757812 30.757812 173.289062 C 29.878906 171.820312 29.035156 170.332031 28.226562 168.824219 C 27.421875 167.3125 26.652344 165.785156 25.917969 164.238281 C 25.1875 162.691406 24.496094 161.125 23.839844 159.542969 C 23.183594 157.960938 22.566406 156.367188 21.992188 154.753906 C 21.414062 153.140625 20.878906 151.515625 20.382812 149.878906 C 19.882812 148.242188 19.429688 146.589844 19.011719 144.929688 C 18.597656 143.269531 18.222656 141.601562 17.886719 139.921875 C 17.554688 138.242188 17.261719 136.554688 17.007812 134.863281 C 16.757812 133.167969 16.546875 131.472656 16.378906 129.769531 C 16.214844 128.0625 16.085938 126.359375 16.003906 124.648438 C 15.917969 122.9375 15.878906 121.226562 15.878906 119.515625 C 15.878906 61.75 62.707031 14.917969 120.472656 14.917969 C 178.019531 14.917969 224.707031 61.386719 225.070312 118.84375 C 225.433594 176.496094 178.128906 224.113281 120.472656 224.113281 Z M 120.472656 224.113281 " fill-opacity="1" fill-rule="nonzero"/><path fill="#26a9e0" d="M 225.070312 119.515625 C 225.070312 121.226562 225.03125 122.9375 224.945312 124.648438 C 224.863281 126.355469 224.734375 128.0625 224.566406 129.769531 C 224.398438 131.472656 224.191406 133.167969 223.9375 134.863281 C 223.6875 136.554688 223.394531 138.242188 223.0625 139.921875 C 222.726562 141.601562 222.351562 143.269531 221.9375 144.929688 C 221.519531 146.589844 221.0625 148.238281 220.566406 149.878906 C 220.070312 151.515625 219.535156 153.140625 218.957031 154.753906 C 218.378906 156.363281 217.765625 157.960938 217.109375 159.542969 C 216.453125 161.125 215.761719 162.6875 215.027344 164.234375 C 214.296875 165.785156 213.527344 167.3125 212.722656 168.820312 C 211.914062 170.332031 211.070312 171.820312 210.191406 173.289062 C 209.308594 174.757812 208.394531 176.203125 207.445312 177.625 C 206.492188 179.050781 205.507812 180.449219 204.488281 181.824219 C 203.46875 183.199219 202.414062 184.546875 201.328125 185.871094 C 200.242188 187.195312 199.125 188.488281 197.976562 189.757812 C 196.824219 191.027344 195.644531 192.265625 194.4375 193.476562 C 193.226562 194.6875 191.984375 195.867188 190.71875 197.015625 C 189.449219 198.167969 188.152344 199.285156 186.828125 200.371094 C 185.507812 201.457031 184.15625 202.507812 182.78125 203.527344 C 181.40625 204.546875 180.007812 205.535156 178.585938 206.484375 C 177.160156 207.4375 175.714844 208.351562 174.246094 209.230469 C 172.78125 210.109375 171.289062 210.953125 169.78125 211.761719 C 168.269531 212.570312 166.742188 213.339844 165.195312 214.070312 C 163.648438 214.800781 162.082031 215.496094 160.5 216.152344 C 158.921875 216.804688 157.324219 217.421875 155.710938 218 C 154.101562 218.574219 152.476562 219.113281 150.835938 219.609375 C 149.199219 220.105469 147.550781 220.5625 145.890625 220.976562 C 144.230469 221.394531 142.558594 221.769531 140.878906 222.101562 C 139.203125 222.4375 137.515625 222.730469 135.820312 222.980469 C 134.128906 223.230469 132.429688 223.441406 130.726562 223.609375 C 129.023438 223.777344 127.316406 223.902344 125.605469 223.988281 C 123.898438 224.070312 122.1875 224.113281 120.472656 224.113281 C 118.761719 224.113281 117.050781 224.070312 115.34375 223.988281 C 113.632812 223.902344 111.925781 223.777344 110.222656 223.609375 C 108.519531 223.441406 106.820312 223.230469 105.125 222.980469 C 103.433594 222.730469 101.746094 222.4375 100.070312 222.101562 C 98.390625 221.769531 96.71875 221.394531 95.058594 220.976562 C 93.398438 220.5625 91.75 220.105469 90.113281 219.609375 C 88.472656 219.113281 86.847656 218.574219 85.238281 218 C 83.625 217.421875 82.027344 216.804688 80.445312 216.152344 C 78.863281 215.496094 77.300781 214.800781 75.753906 214.070312 C 74.207031 213.339844 72.675781 212.570312 71.167969 211.761719 C 69.65625 210.953125 68.167969 210.109375 66.699219 209.230469 C 65.230469 208.351562 63.785156 207.4375 62.363281 206.484375 C 60.941406 205.535156 59.539062 204.546875 58.164062 203.527344 C 56.789062 202.507812 55.441406 201.457031 54.117188 200.371094 C 52.796875 199.285156 51.5 198.167969 50.230469 197.015625 C 48.960938 195.867188 47.722656 194.6875 46.511719 193.476562 C 45.300781 192.265625 44.121094 191.027344 42.972656 189.757812 C 41.824219 188.488281 40.707031 187.195312 39.621094 185.871094 C 38.535156 184.546875 37.480469 183.199219 36.460938 181.824219 C 35.441406 180.449219 34.457031 179.050781 33.503906 177.625 C 32.554688 176.203125 31.636719 174.757812 30.757812 173.289062 C 29.878906 171.820312 29.035156 170.332031 28.226562 168.820312 C 27.421875 167.3125 26.652344 165.785156 25.917969 164.234375 C 25.1875 162.6875 24.496094 161.125 23.839844 159.542969 C 23.183594 157.960938 22.566406 156.363281 21.992188 154.753906 C 21.414062 153.140625 20.878906 151.515625 20.382812 149.878906 C 19.882812 148.238281 19.429688 146.589844 19.011719 144.929688 C 18.597656 143.269531 18.222656 141.601562 17.886719 139.921875 C 17.554688 138.242188 17.261719 136.554688 17.007812 134.863281 C 16.757812 133.167969 16.546875 131.472656 16.378906 129.769531 C 16.214844 128.0625 16.085938 126.355469 16.003906 124.648438 C 15.917969 122.9375 15.878906 121.226562 15.878906 119.515625 C 15.878906 117.804688 15.917969 116.09375 16.003906 114.382812 C 16.085938 112.671875 16.214844 110.964844 16.378906 109.261719 C 16.546875 107.558594 16.757812 105.859375 17.007812 104.167969 C 17.261719 102.472656 17.554688 100.789062 17.886719 99.109375 C 18.222656 97.429688 18.597656 95.761719 19.011719 94.101562 C 19.429688 92.441406 19.882812 90.789062 20.382812 89.152344 C 20.878906 87.515625 21.414062 85.890625 21.992188 84.277344 C 22.566406 82.664062 23.183594 81.070312 23.839844 79.488281 C 24.496094 77.90625 25.1875 76.339844 25.917969 74.792969 C 26.652344 73.246094 27.421875 71.71875 28.226562 70.207031 C 29.035156 68.699219 29.878906 67.210938 30.757812 65.742188 C 31.636719 64.273438 32.554688 62.828125 33.503906 61.402344 C 34.457031 59.980469 35.441406 58.582031 36.460938 57.207031 C 37.480469 55.832031 38.535156 54.484375 39.621094 53.160156 C 40.707031 51.835938 41.824219 50.539062 42.972656 49.273438 C 44.121094 48.003906 45.300781 46.765625 46.511719 45.554688 C 47.722656 44.34375 48.960938 43.164062 50.230469 42.015625 C 51.5 40.863281 52.796875 39.746094 54.117188 38.660156 C 55.441406 37.574219 56.789062 36.523438 58.164062 35.503906 C 59.539062 34.480469 60.941406 33.496094 62.363281 32.546875 C 63.785156 31.59375 65.230469 30.679688 66.699219 29.800781 C 68.167969 28.917969 69.65625 28.074219 71.167969 27.269531 C 72.675781 26.460938 74.207031 25.691406 75.753906 24.960938 C 77.300781 24.230469 78.863281 23.535156 80.445312 22.878906 C 82.027344 22.226562 83.625 21.609375 85.238281 21.03125 C 86.847656 20.457031 88.472656 19.917969 90.113281 19.421875 C 91.75 18.925781 93.398438 18.46875 95.058594 18.054688 C 96.71875 17.636719 98.390625 17.261719 100.070312 16.929688 C 101.746094 16.59375 103.433594 16.300781 105.125 16.050781 C 106.820312 15.800781 108.519531 15.589844 110.222656 15.421875 C 111.925781 15.253906 113.632812 15.128906 115.34375 15.042969 C 117.050781 14.960938 118.761719 14.917969 120.472656 14.917969 C 122.1875 14.917969 123.898438 14.960938 125.605469 15.042969 C 127.316406 15.128906 129.023438 15.253906 130.726562 15.421875 C 132.429688 15.589844 134.128906 15.800781 135.820312 16.050781 C 137.515625 16.300781 139.203125 16.59375 140.878906 16.929688 C 142.558594 17.261719 144.230469 17.636719 145.890625 18.054688 C 147.550781 18.46875 149.199219 18.925781 150.835938 19.421875 C 152.476562 19.917969 154.101562 20.457031 155.710938 21.03125 C 157.324219 21.609375 158.921875 22.226562 160.5 22.878906 C 162.082031 23.535156 163.648438 24.230469 165.195312 24.960938 C 166.742188 25.691406 168.269531 26.460938 169.78125 27.269531 C 171.289062 28.074219 172.78125 28.917969 174.246094 29.800781 C 175.714844 30.679688 177.160156 31.59375 178.585938 32.546875 C 180.007812 33.496094 181.40625 34.480469 182.78125 35.503906 C 184.15625 36.523438 185.507812 37.574219 186.828125 38.660156 C 188.152344 39.746094 189.449219 40.863281 190.71875 42.015625 C 191.984375 43.164062 193.226562 44.34375 194.4375 45.554688 C 195.644531 46.765625 196.824219 48.003906 197.976562 49.273438 C 199.125 50.539062 200.242188 51.835938 201.328125 53.160156 C 202.414062 54.484375 203.46875 55.832031 204.488281 57.207031 C 205.507812 58.582031 206.492188 59.980469 207.445312 61.402344 C 208.394531 62.828125 209.308594 64.273438 210.191406 65.742188 C 211.070312 67.210938 211.914062 68.699219 212.722656 70.207031 C 213.527344 71.71875 214.296875 73.246094 215.027344 74.792969 C 215.761719 76.339844 216.453125 77.90625 217.109375 79.488281 C 217.765625 81.070312 218.378906 82.664062 218.957031 84.277344 C 219.535156 85.890625 220.070312 87.515625 220.566406 89.152344 C 221.066406 90.789062 221.519531 92.441406 221.9375 94.101562 C 222.351562 95.761719 222.726562 97.429688 223.0625 99.109375 C 223.394531 100.789062 223.6875 102.472656 223.9375 104.167969 C 224.191406 105.859375 224.398438 107.558594 224.566406 109.261719 C 224.734375 110.964844 224.863281 112.671875 224.945312 114.382812 C 225.03125 116.09375 225.070312 117.804688 225.070312 119.515625 Z M 225.070312 119.515625 " fill-opacity="1" fill-rule="nonzero"/><path fill="#5e17eb" d="M 101.78125 68.664062 L 101.828125 68.757812 L 108.066406 81.132812 C 108.402344 81.796875 108.683594 82.484375 108.90625 83.195312 C 109.132812 83.90625 109.296875 84.628906 109.40625 85.367188 C 109.511719 86.105469 109.558594 86.847656 109.546875 87.59375 C 109.535156 88.335938 109.464844 89.078125 109.332031 89.808594 C 109.203125 90.542969 109.011719 91.261719 108.765625 91.964844 C 108.519531 92.667969 108.214844 93.347656 107.859375 94 C 107.503906 94.65625 107.097656 95.277344 106.640625 95.867188 C 106.183594 96.453125 105.679688 97.003906 105.136719 97.511719 C 104.59375 98.015625 104.09375 98.558594 103.636719 99.140625 C 103.183594 99.726562 102.777344 100.34375 102.417969 100.992188 C 102.0625 101.640625 101.761719 102.316406 101.511719 103.015625 C 101.265625 103.710938 101.074219 104.425781 100.941406 105.152344 C 100.808594 105.882812 100.734375 106.617188 100.71875 107.359375 C 100.703125 108.097656 100.746094 108.835938 100.847656 109.570312 C 100.953125 110.304688 101.113281 111.023438 101.332031 111.730469 C 101.550781 112.441406 101.824219 113.125 102.152344 113.789062 C 105.898438 121.308594 112.386719 131.675781 122.289062 139.152344 C 122.839844 139.574219 123.421875 139.949219 124.027344 140.28125 C 124.636719 140.613281 125.265625 140.898438 125.914062 141.136719 C 126.566406 141.375 127.230469 141.5625 127.910156 141.703125 C 128.589844 141.839844 129.273438 141.925781 129.964844 141.964844 C 130.65625 142 131.347656 141.984375 132.039062 141.917969 C 132.726562 141.851562 133.40625 141.730469 134.078125 141.5625 C 134.75 141.394531 135.40625 141.175781 136.046875 140.910156 C 136.6875 140.640625 137.300781 140.328125 137.894531 139.96875 L 141.910156 137.527344 C 142.8125 136.976562 143.765625 136.539062 144.765625 136.207031 C 145.765625 135.875 146.792969 135.660156 147.84375 135.566406 C 148.894531 135.46875 149.941406 135.492188 150.984375 135.632812 C 152.03125 135.777344 153.046875 136.035156 154.03125 136.410156 L 170 142.480469 C 170.851562 142.804688 171.664062 143.207031 172.433594 143.691406 C 173.203125 144.171875 173.921875 144.726562 174.582031 145.351562 C 175.242188 145.972656 175.839844 146.65625 176.367188 147.398438 C 176.894531 148.140625 177.34375 148.925781 177.714844 149.753906 C 178.089844 150.585938 178.378906 151.441406 178.582031 152.328125 C 178.785156 153.214844 178.898438 154.113281 178.925781 155.023438 C 178.953125 155.933594 178.890625 156.835938 178.738281 157.734375 C 178.589844 158.628906 178.351562 159.503906 178.027344 160.355469 C 177.839844 160.839844 177.628906 161.316406 177.390625 161.78125 L 172.964844 170.359375 C 172.605469 171.050781 172.191406 171.710938 171.722656 172.335938 C 171.253906 172.957031 170.734375 173.539062 170.167969 174.074219 C 169.597656 174.609375 168.992188 175.09375 168.339844 175.527344 C 167.691406 175.960938 167.011719 176.339844 166.296875 176.65625 C 165.585938 176.972656 164.851562 177.230469 164.09375 177.425781 C 163.339844 177.617188 162.570312 177.75 161.792969 177.8125 C 161.015625 177.878906 160.238281 177.875 159.460938 177.808594 C 158.679688 177.742188 157.914062 177.609375 157.160156 177.414062 C 132.078125 170.925781 72.304688 148.371094 67.488281 80.167969 C 67.394531 78.8125 67.492188 77.472656 67.792969 76.148438 C 68.089844 74.824219 68.570312 73.574219 69.234375 72.390625 C 69.902344 71.207031 70.722656 70.144531 71.699219 69.203125 C 72.675781 68.261719 73.769531 67.480469 74.976562 66.859375 L 83.121094 62.675781 C 83.929688 62.261719 84.773438 61.925781 85.648438 61.675781 C 86.519531 61.425781 87.414062 61.265625 88.320312 61.191406 C 89.226562 61.113281 90.132812 61.128906 91.035156 61.234375 C 91.9375 61.335938 92.824219 61.527344 93.691406 61.804688 C 94.558594 62.082031 95.386719 62.441406 96.183594 62.886719 C 96.980469 63.328125 97.722656 63.839844 98.417969 64.429688 C 99.113281 65.019531 99.742188 65.667969 100.308594 66.382812 C 100.875 67.09375 101.363281 67.855469 101.78125 68.664062 Z M 101.78125 68.664062 " fill-opacity="1" fill-rule="nonzero"/></svg>